<svg id="Group_6" data-name="Group 6" xmlns="http://www.w3.org/2000/svg" width="200" height="114.501" viewBox="0 0 200 114.501">
  <path id="Path_438" data-name="Path 438" d="M156.754,622.324a4.866,4.866,0,0,0,4.7-.828c1.646-1.381,2.162-3.656,2.582-5.764l1.242-6.233-2.6,1.79a18.936,18.936,0,0,0-5.076,4.481,6.431,6.431,0,0,0-.819,6.428" transform="translate(-151.57 -517.986)" fill="#46c404"/>
  <path id="Path_439" data-name="Path 439" d="M158.635,649.733a31.266,31.266,0,0,1-.434-7.208,11.338,11.338,0,0,1,2.186-5.944,9.889,9.889,0,0,1,2.537-2.3c.254-.16.487.242.235.4a9.4,9.4,0,0,0-3.718,4.486,15.068,15.068,0,0,0-.8,6.491c.084,1.323.263,2.637.443,3.949a.241.241,0,0,1-.162.286.234.234,0,0,1-.286-.162Z" transform="translate(-153.05 -537.414)" fill="#f2f2f2"/>
  <path id="Path_442" data-name="Path 442" d="M171.462,674.362a3.582,3.582,0,0,0,3.121,1.611c1.58-.075,2.9-1.177,4.083-2.225l3.507-3.1-2.321-.111a13.927,13.927,0,0,0-4.971.36,4.734,4.734,0,0,0-3.347,3.4" transform="translate(-163.522 -565.869)" fill="#ffeb00"/>
  <path id="Path_443" data-name="Path 443" d="M156.081,686.429c1.575-2.787,3.4-5.885,6.668-6.876a7.443,7.443,0,0,1,2.8-.29c.3.026.223.485-.074.459A6.912,6.912,0,0,0,161,680.906a11.634,11.634,0,0,0-3.076,3.32c-.509.776-.966,1.584-1.422,2.392C156.36,686.876,155.933,686.69,156.081,686.429Z" transform="translate(-151.421 -572.74)" fill="#f2f2f2"/>
  <circle id="Ellipse_19" data-name="Ellipse 19" cx="1.289" cy="1.289" r="1.289" transform="translate(78.022 33.083)" fill="#4e4e4e"/>
  <path id="Path_114" data-name="Path 114" d="M526.63,270.884a90.635,90.635,0,0,1-14.394-7.551c-10.955-7.047-18.425-15.2-18.587-20.282a3.954,3.954,0,0,1,1.641-3.5c1.838-1.356,5.115-1.681,9.476-.941l-.108.635c-4.185-.71-7.292-.425-8.986.825a3.342,3.342,0,0,0-1.379,2.963c.156,4.882,7.507,12.823,18.292,19.76a89.964,89.964,0,0,0,14.289,7.5Z" transform="translate(-416.494 -226.465)" fill="#3f3d56"/>
  <path id="Path_115" data-name="Path 115" d="M614.18,285.048a29.565,29.565,0,0,1-6.748-.925l.15-.627c5.4,1.3,9.493,1.188,11.515-.3a3.343,3.343,0,0,0,1.379-2.963c-.156-4.882-7.507-12.823-18.292-19.76A87.148,87.148,0,0,0,585.4,252l.222-.605a87.8,87.8,0,0,1,16.916,8.531c10.955,7.047,18.425,15.2,18.587,20.282a3.954,3.954,0,0,1-1.641,3.5A8.9,8.9,0,0,1,614.18,285.048Z" transform="translate(-488.533 -236.81)" fill="#3f3d56"/>
  <path id="Path_116" data-name="Path 116" d="M500.608,274.7a8.969,8.969,0,0,1-5.318-1.33,3.954,3.954,0,0,1-1.641-3.5c.162-5.084,7.632-13.235,18.587-20.282,12.244-7.876,25.987-12.543,32.678-11.1l-.136.63c-6.54-1.414-20.08,3.217-32.194,11.01-10.785,6.937-18.136,14.878-18.292,19.76a3.342,3.342,0,0,0,1.379,2.963c4.839,3.569,20.3-.942,34.473-10.057,9.733-6.261,16.65-13.266,18.05-18.281l.621.173c-1.441,5.161-8.461,12.307-18.322,18.65a82.866,82.866,0,0,1-21.01,9.877A33.077,33.077,0,0,1,500.608,274.7Z" transform="translate(-416.494 -226.474)" fill="#3f3d56"/>
  <circle id="Ellipse_20" data-name="Ellipse 20" cx="1.933" cy="1.933" r="1.933" transform="translate(90.742 11.493)" fill="#ffeb00"/>
  <circle id="Ellipse_21" data-name="Ellipse 21" cx="1.933" cy="1.933" r="1.933" transform="translate(112.332 43.824)" fill="#ffeb00"/>
  <circle id="Ellipse_22" data-name="Ellipse 22" cx="1.289" cy="1.289" r="1.289" transform="translate(118.991 62.084)" fill="#4e4e4e"/>
  <circle id="Ellipse_23" data-name="Ellipse 23" cx="1.289" cy="1.289" r="1.289" transform="translate(87.198)" fill="#4e4e4e"/>
  <circle id="Ellipse_24" data-name="Ellipse 24" cx="1.933" cy="1.933" r="1.933" transform="translate(129.303 12.46)" fill="#ffeb00"/>
  <path id="Path_117" data-name="Path 117" d="M202.814,714.93h-68.1a.215.215,0,0,1,0-.43h68.1a.215.215,0,0,1,0,.43Z" transform="translate(-134.5 -600.429)" fill="#4e4e4e"/>
  <path id="Path_118" data-name="Path 118" d="M188.694,482.478h2.634l1.253-10.159h-3.887Z" transform="translate(-148.158 -370.854)" fill="#ffb7b7"/>
  <path id="Path_119" data-name="Path 119" d="M320.069,699.1h5.187a3.305,3.305,0,0,1,3.305,3.305v.108h-8.492Z" transform="translate(-280.204 -588.341)" fill="#2f2e41"/>
  <path id="Path_120" data-name="Path 120" d="M139.694,483.478h2.634l1.253-10.159h-3.887Z" transform="translate(-109.685 -371.639)" fill="#ffb7b7"/>
  <path id="Path_121" data-name="Path 121" d="M271.069,700.1h5.187a3.306,3.306,0,0,1,3.305,3.305v.108h-8.492Z" transform="translate(-241.731 -589.126)" fill="#2f2e41"/>
  <path id="Path_122" data-name="Path 122" d="M282.076,494.389l-1.339,39.142h-4.3l-4.072-35.076L270.64,533.96h-5.371L263.786,491.9l16.488-.226Z" transform="translate(-236.012 -425.475)" fill="#2f2e41"/>
  <path id="Path_123" data-name="Path 123" d="M143.035,172.24l7.573-.24,1.687,31.174-11.971-.24Z" transform="translate(-110.18 -135.05)" fill="#cbcbcb"/>
  <path id="Path_124" data-name="Path 124" d="M314.477,387.975l7.905-.226-2.259-11.293.226-6.55,1.807-10.615-4.969-2.936L316.058,355s-1.807,1.807-1.807,10.164S314.477,387.975,314.477,387.975Z" transform="translate(-275.637 -318.158)" fill="#2f2e41"/>
  <path id="Path_125" data-name="Path 125" d="M259,387.75s6.776-16.315,3.84-23.629c0,0-1-7.991-2.645-9.121l-2.549,1.129-5.421,2.71,2.033,5.646-.678,4.743-.452,16.488Z" transform="translate(-226.931 -318.158)" fill="#2f2e41"/>
  <path id="Path_126" data-name="Path 126" d="M249.567,474.624a2.118,2.118,0,0,1-.829-3.14l-2.578-4.1,2.107-2.174,3.56,5.835a2.129,2.129,0,0,1-2.26,3.575Z" transform="translate(-222.173 -404.695)" fill="#ffb7b7"/>
  <path id="Path_127" data-name="Path 127" d="M353.521,492.916a2.118,2.118,0,0,1,.1-3.246l-1.3-4.662,2.641-1.48,1.741,6.61a2.129,2.129,0,0,1-3.188,2.778Z" transform="translate(-305.533 -419.075)" fill="#ffb7b7"/>
  <path id="Path_128" data-name="Path 128" d="M234.893,370.771l-2.484.452-5.421,13.1,4.969,12.874,3.388-3.162-3.162-7.679s.226-.9,0-1.016.332-.84.226-.9c-.226-.12.452-1.249.452-1.249l2.71-5.646Z" transform="translate(-207.119 -330.541)" fill="#2f2e41"/>
  <path id="Path_129" data-name="Path 129" d="M202.508,191.476h2.485l2.71,14-.226,2.259.9,5.646,1.242,5.759-3.953.113-2.033-10.615-1.807-7.227Z" transform="translate(-158.472 -150.343)" fill="#2f2e41"/>
  <circle id="Ellipse_25" data-name="Ellipse 25" cx="5.276" cy="5.276" r="5.276" transform="translate(31.492 24.553)" fill="#ffb7b7"/>
  <path id="Path_130" data-name="Path 130" d="M284.284,291.46l.937-.341a6.662,6.662,0,0,0-4.684-1.789l.767-.767a3.477,3.477,0,0,0-3.577,1.107,15.218,15.218,0,0,0-2.577,3.29h-1l.419.838-1.466.837,1.5-.15a4.226,4.226,0,0,0,.142,2.169l.341.937a27.014,27.014,0,0,0,1.363-3.066v.852s.937-.766.937-1.278l.511.6.256-.937,3.151.937-.511-.767,1.959.256-.767-.937s2.214,1.107,2.3,2.044a4.9,4.9,0,0,0,1.192,2.129l.511-.852S286.754,292.737,284.284,291.46Z" transform="translate(-243.325 -265.894)" fill="#2f2e41"/>
  <path id="Path_131" data-name="Path 131" d="M731.257,469.465l-3.773-1.1-1.648,10.213,2.556.743Z" transform="translate(-569.911 -367.753)" fill="#9f616a"/>
  <path id="Path_132" data-name="Path 132" d="M834.178,694.934l.109-.374a2.843,2.843,0,0,1,3.523-1.937l5.3,1.541h0l-.9,3.1h0Z" transform="translate(-683.871 -583.163)" fill="#2f2e41"/>
  <path id="Path_133" data-name="Path 133" d="M846.351,471.857h-3.929l1.266,10.267h2.662Z" transform="translate(-661.451 -370.491)" fill="#9f616a"/>
  <path id="Path_134" data-name="Path 134" d="M958.919,702.844v-.389a2.843,2.843,0,0,1,2.843-2.843h5.523v3.232h-8.366Z" transform="translate(-781.815 -588.739)" fill="#2f2e41"/>
  <path id="Path_135" data-name="Path 135" d="M965.892,497.433a2.2,2.2,0,0,0,1.031-2.928l-.744-7.007-3.708-1.585,1.382,7.635a2.2,2.2,0,0,0,2.039,3.885Z" transform="translate(-784.604 -420.948)" fill="#9f616a"/>
  <path id="Path_136" data-name="Path 136" d="M940.883,398.63l-4.35-13.205A2.936,2.936,0,0,0,933,384.294a1.972,1.972,0,0,0-1.218.993,5.293,5.293,0,0,0-.044,3.378l5.355,12,.006.012L938.792,413l3.65-.741Z" transform="translate(-760.259 -341.019)" fill="#46c404"/>
  <path id="Path_137" data-name="Path 137" d="M840.72,503.852l6.547-20.076,7.591-17.351-.109-8.415,9.008-2.1,1.049,3.527c6.067,4,4.068,11.7,3.926,12.22l9.142,33.737-9.968,1.107-6.691-31.943-6.17,12.979-4.363,19.415Z" transform="translate(-689.008 -397.389)" fill="#2f2e41"/>
  <path id="Path_138" data-name="Path 138" d="M899.888,390.137c-1.791-3.433-.5-4.741,1.462-6.718a26.959,26.959,0,0,0,2.248-2.485c3.055-3.928,6.6-2,6.636-1.979l.02.011.876,1.314c2.887,2.905-1.491,10.889-1.823,11.483l.22,5.709-9.31.887Z" transform="translate(-734.796 -336.581)" fill="#46c404"/>
  <circle id="Ellipse_26" data-name="Ellipse 26" cx="5.333" cy="5.333" r="5.333" transform="translate(165.509 30.014)" fill="#9f616a"/>
  <path id="Path_139" data-name="Path 139" d="M918.774,496.044a2.2,2.2,0,0,0,4.153-1.327l1.053-6.968-3.186-2.471-.595,7.736a2.184,2.184,0,0,0-1.425,3.029Z" transform="translate(-750.135 -420.45)" fill="#9f616a"/>
  <path id="Path_140" data-name="Path 140" d="M920.3,410.269l1.5-12.526-2.144-12.962a5.379,5.379,0,0,1,.945-3.406,2.156,2.156,0,0,1,1.563-.716,3.166,3.166,0,0,1,3.325,2.137l.872,13.925L924.394,410.5Z" transform="translate(-750.983 -338.302)" fill="#46c404"/>
  <path id="Path_141" data-name="Path 141" d="M898.622,305.47l.29-.467a3.535,3.535,0,0,1,3.745,1.685c.183-.675,1.272-.64,1.674-.069a2.658,2.658,0,0,1,.183,2.031,3.225,3.225,0,0,0,.039,2.057,1.906,1.906,0,0,0,1.666.948,3.544,3.544,0,0,0,1.892-.6,6.477,6.477,0,0,0,2.952-6.242,6.233,6.233,0,0,0-1.026-2.633,1.217,1.217,0,0,0,.807-.392,1.291,1.291,0,0,0,.141-1.34,2.429,2.429,0,0,0-.791-.939,1.97,1.97,0,0,0,.837.391.766.766,0,0,0,.884-.5c.065-.345-.212-.66-.467-.913l-.5-.493a3.148,3.148,0,0,0,.239-.307,2.471,2.471,0,0,0,.124-2.68,1.914,1.914,0,0,1-.778,2.432c-.027.021-.057.04-.085.06l-.317-.314a2.718,2.718,0,0,0-.893-.667.918.918,0,0,0-1.028.19c-.245.306-.177.792-.464,1.061a1.043,1.043,0,0,1-1,.1,2.139,2.139,0,0,0-1.029-.17.966.966,0,0,0-.675,1.106,1.316,1.316,0,0,0,.25.558,17.4,17.4,0,0,0-2.838-.009,9.724,9.724,0,0,0-3.274.573,3.407,3.407,0,0,0-2.126,2.395C896.87,303.409,897.512,305.374,898.622,305.47Z" transform="translate(-733.218 -271.047)" fill="#2f2e41"/>
  <path id="Path_142" data-name="Path 142" d="M814.814,714.93h-68.1a.215.215,0,0,1,0-.43h68.1a.215.215,0,0,1,0,.43Z" transform="translate(-615.029 -600.429)" fill="#4e4e4e"/>
</svg>
