<svg xmlns="http://www.w3.org/2000/svg" width="200" height="153.566" viewBox="0 0 200 153.566">
  <g id="Group_4" data-name="Group 4" transform="translate(0)">
    <circle id="Ellipse_11" data-name="Ellipse 11" cx="1.574" cy="1.574" r="1.574" transform="translate(180.757 130.953)" fill="#46c404"/>
    <rect id="Rectangle_26" data-name="Rectangle 26" width="0.482" height="10.595" transform="translate(186.188 142.73)" fill="#e5e5e5"/>
    <circle id="Ellipse_12" data-name="Ellipse 12" cx="2.534" cy="2.534" r="2.534" transform="translate(183.895 136.269)" fill="#46c404"/>
    <path id="Path_52" data-name="Path 52" d="M934.377,735.488s-.362-7.786-7.783-6.881" transform="translate(-747.949 -584.678)" fill="#ffeb00"/>
    <path id="Path_53" data-name="Path 53" d="M787.626,402.9a2.478,2.478,0,0,1-.59-3.753l-3.22-32.311,5.377.357L790.682,399a2.491,2.491,0,0,1-3.056,3.891Z" transform="translate(-639.552 -310.075)" fill="#ffb8b8"/>
    <path id="Path_54" data-name="Path 54" d="M786.91,341.029l-1.41,10.713.2,6.566-5.913.541-1.185-5.461-.653-14.458a4.314,4.314,0,0,1,3.812-4.48h0a4.314,4.314,0,0,1,4.775,3.72Z" transform="translate(-635.091 -285.471)" fill="#2f2e41"/>
    <path id="Path_55" data-name="Path 55" d="M249.739,203.433H185.574a.847.847,0,0,1-.847-.846v-70.6a.847.847,0,0,1,.847-.847h64.165a.847.847,0,0,1,.846.847v70.6A.847.847,0,0,1,249.739,203.433Z" transform="translate(-184.727 -131.141)" fill="#4e4e4e"/>
    <path id="Path_56" data-name="Path 56" d="M238.86,189.884H215.721a.763.763,0,0,1-.762-.762V173.208a.763.763,0,0,1,.762-.762H238.86a.763.763,0,0,1,.762.762v15.914A.763.763,0,0,1,238.86,189.884Z" transform="translate(-207.679 -162.499)" fill="#fff"/>
    <path id="Path_57" data-name="Path 57" d="M265.5,276.265H215.721a.762.762,0,1,1,0-1.524H265.5a.762.762,0,1,1,0,1.524Z" transform="translate(-207.679 -240.162)" fill="#fff"/>
    <path id="Path_58" data-name="Path 58" d="M253.475,298.06H215.721a.762.762,0,0,1,0-1.524h37.754a.762.762,0,1,1,0,1.524Z" transform="translate(-207.679 -256.708)" fill="#fff"/>
    <path id="Path_59" data-name="Path 59" d="M352.33,196.116H330.32a.762.762,0,0,1,0-1.524H352.33a.762.762,0,0,1,0,1.524Z" transform="translate(-294.682 -179.313)" fill="#fff"/>
    <path id="Path_60" data-name="Path 60" d="M346.837,217.911H330.32a.762.762,0,0,1,0-1.524h16.516a.762.762,0,1,1,0,1.524Z" transform="translate(-294.682 -195.859)" fill="#fff"/>
    <path id="Path_61" data-name="Path 61" d="M265.5,319.855H215.721a.762.762,0,1,1,0-1.524H265.5a.762.762,0,1,1,0,1.524Z" transform="translate(-207.679 -273.255)" fill="#fff"/>
    <path id="Path_62" data-name="Path 62" d="M253.475,341.65H215.721a.762.762,0,0,1,0-1.524h37.754a.762.762,0,0,1,0,1.524Z" transform="translate(-207.679 -289.802)" fill="#fff"/>
    <path id="Path_63" data-name="Path 63" d="M265.5,363.446H215.721a.762.762,0,1,1,0-1.524H265.5a.762.762,0,0,1,0,1.524Z" transform="translate(-207.679 -306.348)" fill="#fff"/>
    <path id="Path_64" data-name="Path 64" d="M265.5,385.241H215.721a.762.762,0,1,1,0-1.524H265.5a.762.762,0,1,1,0,1.524Z" transform="translate(-207.679 -322.895)" fill="#fff"/>
    <path id="Path_65" data-name="Path 65" d="M356.739,264.433H292.574a.847.847,0,0,1-.847-.847v-70.6a.848.848,0,0,1,.847-.847h64.165a.847.847,0,0,1,.846.847v70.6A.847.847,0,0,1,356.739,264.433Z" transform="translate(-265.961 -177.452)" fill="#fff"/>
    <path id="Path_66" data-name="Path 66" d="M356.739,264.433H292.574a.847.847,0,0,1-.847-.847v-70.6a.848.848,0,0,1,.847-.847h64.165a.847.847,0,0,1,.846.847v70.6A.847.847,0,0,1,356.739,264.433Zm-64.165-71.953a.509.509,0,0,0-.508.508v70.6a.509.509,0,0,0,.508.508h64.165a.508.508,0,0,0,.508-.508v-70.6a.508.508,0,0,0-.508-.508Z" transform="translate(-265.961 -177.452)" fill="#3f3d56"/>
    <path id="Path_67" data-name="Path 67" d="M345.86,253.169H322.721a.763.763,0,0,1-.762-.762V236.493a.763.763,0,0,1,.762-.762H345.86a.763.763,0,0,1,.762.762v15.914A.763.763,0,0,1,345.86,253.169Z" transform="translate(-288.913 -210.545)" fill="#46c404"/>
    <path id="Path_68" data-name="Path 68" d="M372.5,339.55H322.721a.762.762,0,0,1,0-1.524H372.5a.762.762,0,0,1,0,1.524Z" transform="translate(-288.913 -288.207)" fill="#ccc"/>
    <path id="Path_69" data-name="Path 69" d="M360.475,361.345H322.721a.762.762,0,1,1,0-1.524h37.754a.762.762,0,0,1,0,1.524Z" transform="translate(-288.913 -304.754)" fill="#ccc"/>
    <path id="Path_70" data-name="Path 70" d="M459.33,259.4H437.321a.762.762,0,0,1,0-1.524H459.33a.762.762,0,0,1,0,1.524Z" transform="translate(-375.916 -227.358)" fill="#ffeb00"/>
    <path id="Path_71" data-name="Path 71" d="M453.837,281.2H437.32a.762.762,0,0,1,0-1.524h16.517a.762.762,0,1,1,0,1.524Z" transform="translate(-375.916 -243.905)" fill="#ffeb00"/>
    <path id="Path_72" data-name="Path 72" d="M372.5,383.14H322.721a.762.762,0,0,1,0-1.524H372.5a.762.762,0,0,1,0,1.524Z" transform="translate(-288.913 -321.301)" fill="#ccc"/>
    <path id="Path_73" data-name="Path 73" d="M360.475,404.935H322.721a.762.762,0,0,1,0-1.524h37.754a.762.762,0,1,1,0,1.524Z" transform="translate(-288.913 -337.847)" fill="#ccc"/>
    <path id="Path_74" data-name="Path 74" d="M372.5,426.73H322.721a.762.762,0,0,1,0-1.524H372.5a.762.762,0,0,1,0,1.524Z" transform="translate(-288.913 -354.394)" fill="#ccc"/>
    <path id="Path_75" data-name="Path 75" d="M372.5,448.525H322.721a.762.762,0,0,1,0-1.524H372.5a.762.762,0,0,1,0,1.524Z" transform="translate(-288.913 -370.941)" fill="#ccc"/>
    <path id="Path_76" data-name="Path 76" d="M488.378,143.835l-.239,1.991a23.344,23.344,0,0,0-15.721-9.507l1.67-1.114-.268-.4-2.406,1.605,1.776,2.283.381-.3-1.25-1.606a22.884,22.884,0,0,1,15.443,9.338l-2-.39-.092.473,2.839.553.345-2.872Z" transform="translate(-402.379 -133.922)" fill="#3f3d56"/>
    <path id="Path_77" data-name="Path 77" d="M519.73,578.555h-3.587l-1.706-13.836h5.294Z" transform="translate(-390.558 -428.731)" fill="#ffb7b7"/>
    <path id="Path_78" data-name="Path 78" d="M688.481,753.1H676.914v-.146a4.5,4.5,0,0,1,4.5-4.5h7.065Z" transform="translate(-558.393 -599.8)" fill="#2f2e41"/>
    <path id="Path_79" data-name="Path 79" d="M642.73,578.555h-3.587l-1.706-13.836h5.294Z" transform="translate(-483.939 -428.731)" fill="#ffb7b7"/>
    <path id="Path_80" data-name="Path 80" d="M811.481,753.1H799.914v-.146a4.5,4.5,0,0,1,4.5-4.5h7.065Z" transform="translate(-651.774 -599.8)" fill="#2f2e41"/>
    <circle id="Ellipse_13" data-name="Ellipse 13" cx="7.777" cy="7.777" r="7.777" transform="matrix(0.973, -0.232, 0.232, 0.973, 135.476, 30.348)" fill="#ffb8b8"/>
    <path id="Path_81" data-name="Path 81" d="M713.631,326.507l5.4.617h0a14.362,14.362,0,0,1,1.836,12.969l-4.072,11.781s5.653,11.333,5.653,21.855,10.766,48.081,10.766,48.081l-15.154,1.581-6.612-40.011-9.112,39.85-10.4-1.693,5.729-52.247,3.786-17.2.161-8.386s-1.61-6.293,2.419-10.322l4.919-6.854Z" transform="translate(-569.793 -279.462)" fill="#2f2e41"/>
    <path id="Path_82" data-name="Path 82" d="M756.1,396.908a2.715,2.715,0,0,1-.422-4.141l-1.6-35.542,5.861.71-.262,34.9a2.729,2.729,0,0,1-3.575,4.075Z" transform="translate(-616.974 -302.783)" fill="#ffb8b8"/>
    <path id="Path_83" data-name="Path 83" d="M757.707,329.968l-2.179,11.637-.176,7.2-6.5.241L747.878,343l.145-15.856a4.727,4.727,0,0,1,4.437-4.675h0a4.727,4.727,0,0,1,5,4.354Z" transform="translate(-612.268 -276.386)" fill="#2f2e41"/>
    <path id="Path_84" data-name="Path 84" d="M748.574,250.43H760v-4.982c-2.508-1-4.963-1.844-6.447,0a4.982,4.982,0,0,0-4.982,4.981Z" transform="translate(-612.796 -217.096)" fill="#2f2e41"/>
    <path id="Path_85" data-name="Path 85" d="M771.091,245.227c6.832,0,8.744,8.564,8.744,13.395,0,2.694-1.219,3.658-3.133,3.984L776.026,259l-1.584,3.762c-.538,0-1.1-.008-1.689-.019l-.537-1.106-1.2,1.086c-4.8.007-8.672.706-8.672-4.1C762.347,253.791,764.024,245.227,771.091,245.227Z" transform="translate(-623.253 -217.755)" fill="#2f2e41"/>
    <path id="Path_86" data-name="Path 86" d="M562.676,253.406l-.289-12.544-.766-5.569-1.894,5.517Z" transform="translate(-424.942 -178.632)" opacity="0.2"/>
    <path id="Path_87" data-name="Path 87" d="M724.26,767.341H632.513a.241.241,0,1,1,0-.482H724.26a.241.241,0,1,1,0,.482Z" transform="translate(-524.501 -613.775)" fill="#4e4e4e"/>
  </g>
</svg>
