<svg id="Group_3" data-name="Group 3" xmlns="http://www.w3.org/2000/svg" width="200" height="122.251" viewBox="0 0 200 122.251">
  <path id="Path_438" data-name="Path 438" d="M926.291,605.2a5.86,5.86,0,0,1-5.659-1c-1.982-1.664-2.6-4.4-3.109-6.942l-1.5-7.507,3.131,2.156a22.808,22.808,0,0,1,6.113,5.4c1.559,2.246,2.239,5.312.987,7.742" transform="translate(-739.542 -494.809)" fill="#46c404"/>
  <path id="Path_439" data-name="Path 439" d="M938.965,634.864a37.653,37.653,0,0,0,.523-8.682,13.656,13.656,0,0,0-2.633-7.159,11.909,11.909,0,0,0-3.055-2.769c-.305-.193-.587.291-.282.483a11.322,11.322,0,0,1,4.478,5.4,18.147,18.147,0,0,1,.964,7.817c-.1,1.593-.317,3.176-.534,4.756a.29.29,0,0,0,.2.344.282.282,0,0,0,.344-.2Z" transform="translate(-752.701 -514.859)" fill="#f2f2f2"/>
  <path id="Path_442" data-name="Path 442" d="M904.317,659.622a4.314,4.314,0,0,1-3.759,1.941c-1.9-.09-3.489-1.418-4.917-2.679l-4.224-3.729,2.8-.134a16.77,16.77,0,0,1,5.987.434,5.7,5.7,0,0,1,4.031,4.094" transform="translate(-720.888 -544.224)" fill="#ffeb00"/>
  <path id="Path_443" data-name="Path 443" d="M924.6,672.971c-1.9-3.357-4.1-7.088-8.03-8.281a8.96,8.96,0,0,0-3.378-.349c-.359.031-.269.584.089.553a8.325,8.325,0,0,1,5.39,1.426,14.011,14.011,0,0,1,3.7,4c.614.934,1.163,1.908,1.713,2.881C924.262,673.51,924.775,673.285,924.6,672.971Z" transform="translate(-737.219 -551.315)" fill="#f2f2f2"/>
  <path id="Path_33" data-name="Path 33" d="M201.859,150.5v31.966h-73.83v16.973H108.51V150.5Z" transform="translate(-82.249 -114.076)" fill="#fff"/>
  <path id="Path_34" data-name="Path 34" d="M291.809,344.435V395.07h20.368v-1.7H293.506V346.132h91.655v31.116h1.7V344.435Z" transform="translate(-266.397 -308.858)" fill="#4e4e4e"/>
  <rect id="Rectangle_16" data-name="Rectangle 16" width="59.173" height="2.089" transform="translate(45.827 54.538)" fill="#e5e5e5"/>
  <rect id="Rectangle_17" data-name="Rectangle 17" width="59.173" height="2.089" transform="translate(45.827 59.969)" fill="#e5e5e5"/>
  <rect id="Rectangle_18" data-name="Rectangle 18" width="59.173" height="2.089" transform="translate(45.827 65.4)" fill="#e5e5e5"/>
  <circle id="Ellipse_7" data-name="Ellipse 7" cx="1.363" cy="1.363" r="1.363" transform="translate(40.872 54.298)" fill="#e5e5e5"/>
  <path id="Path_35" data-name="Path 35" d="M96.859,3.5V35.466H23.029V52.439H3.51V3.5Z" transform="translate(-2.661 -2.653)" fill="#fff"/>
  <path id="Path_36" data-name="Path 36" d="M186.809,197.435V248.07h20.368v-1.7H188.506V199.132h91.655v31.116h1.7V197.435Z" transform="translate(-186.809 -197.435)" fill="#4e4e4e"/>
  <rect id="Rectangle_19" data-name="Rectangle 19" width="59.173" height="2.089" transform="translate(20.415 18.962)" fill="#f1f1f1"/>
  <rect id="Rectangle_20" data-name="Rectangle 20" width="59.173" height="2.089" transform="translate(20.415 24.393)" fill="#f1f1f1"/>
  <rect id="Rectangle_21" data-name="Rectangle 21" width="59.173" height="2.089" transform="translate(20.415 29.824)" fill="#f1f1f1"/>
  <circle id="Ellipse_8" data-name="Ellipse 8" cx="1.363" cy="1.363" r="1.363" transform="translate(15.46 18.722)" fill="#f1f1f1"/>
  <rect id="Rectangle_22" data-name="Rectangle 22" width="93.351" height="48.938" transform="translate(50.77 72.464)" fill="#fff"/>
  <path id="Path_37" data-name="Path 37" d="M488.127,543.978H393.079V493.343h95.048Zm-93.351-1.7H486.43V495.04H394.776Z" transform="translate(-343.158 -421.727)" fill="#4e4e4e"/>
  <rect id="Rectangle_23" data-name="Rectangle 23" width="59.173" height="2.089" transform="translate(70.234 90.655)" fill="#ffeb00"/>
  <rect id="Rectangle_24" data-name="Rectangle 24" width="59.173" height="2.089" transform="translate(70.234 96.086)" fill="#ffeb00"/>
  <rect id="Rectangle_25" data-name="Rectangle 25" width="59.173" height="2.089" transform="translate(70.234 101.516)" fill="#ffeb00"/>
  <circle id="Ellipse_9" data-name="Ellipse 9" cx="1.363" cy="1.363" r="1.363" transform="translate(65.279 90.415)" fill="#4e4e4e"/>
  <path id="Path_38" data-name="Path 38" d="M724.04,415.826a2.437,2.437,0,0,1,.949-3.613l6.751-21.14,4.7,2.443-8.115,20.012a2.45,2.45,0,0,1-4.288,2.3Z" transform="translate(-593.68 -344.209)" fill="#9f616a"/>
  <path id="Path_39" data-name="Path 39" d="M747.934,377.9a1.092,1.092,0,0,1,.005-.91l2.313-4.972a3.034,3.034,0,1,1,5.823,1.707l-.773,5.446a1.093,1.093,0,0,1-1.392.894l-5.29-1.567a1.091,1.091,0,0,1-.685-.6Z" transform="translate(-612.058 -328.112)" fill="#46c404"/>
  <path id="Path_40" data-name="Path 40" d="M600.085,209.183l-.377,5.28-12.824,4.526L586.7,213.9Z" transform="translate(-444.705 -158.557)" fill="#9f616a"/>
  <path id="Path_41" data-name="Path 41" d="M756.118,359.315l4.149-3.017,6.789-1.886,5.657,1.131.943,8.863-1.131,5.657-14.709,3.394-1.509-2.64s-3.394-3.394-.754-7.166Z" transform="translate(-617.143 -316.42)" fill="#46c404"/>
  <path id="Path_42" data-name="Path 42" d="M754.8,302.418v-4.952a7.9,7.9,0,1,1,15.8,0v4.952a1.062,1.062,0,0,1-1.061,1.061H755.866A1.062,1.062,0,0,1,754.8,302.418Z" transform="translate(-617.339 -267.268)" fill="#2f2e41"/>
  <circle id="Ellipse_10" data-name="Ellipse 10" cx="5.792" cy="5.792" r="5.792" transform="translate(139.256 24.578)" fill="#9f616a"/>
  <path id="Path_43" data-name="Path 43" d="M761.095,301.122a.59.59,0,0,1-.138-.47l.686-4.778a.59.59,0,0,1,.334-.453,11.958,11.958,0,0,1,10.556-.006.594.594,0,0,1,.337.48l.458,4.784a.589.589,0,0,1-.587.646h-1.162a.592.592,0,0,1-.534-.34l-.5-1.074a.354.354,0,0,0-.672.106l-.1.792a.59.59,0,0,1-.585.517h-7.647a.59.59,0,0,1-.446-.2Z" transform="translate(-621.998 -270.774)" fill="#2f2e41"/>
  <path id="Path_44" data-name="Path 44" d="M832.02,405.113a2.437,2.437,0,0,1-1.688-3.333l-8.982-20.293,5.138-1.294,7.213,20.354a2.45,2.45,0,0,1-1.681,4.566Z" transform="translate(-667.779 -335.963)" fill="#9f616a"/>
  <path id="Path_45" data-name="Path 45" d="M814.907,368.415a1.091,1.091,0,0,1-.6-.684l-1.57-5.253a3.034,3.034,0,1,1,5.488-2.589l3.037,4.587a1.092,1.092,0,0,1-.448,1.593l-5,2.339A1.091,1.091,0,0,1,814.907,368.415Z" transform="translate(-661.03 -319.253)" fill="#46c404"/>
  <path id="Path_46" data-name="Path 46" d="M624.243,450.863h-3.269l-1.555-12.61h4.825Z" transform="translate(-469.508 -332.188)" fill="#9f616a"/>
  <path id="Path_47" data-name="Path 47" d="M796.593,687.616H786.051v-.133a4.1,4.1,0,0,1,4.1-4.1h6.439Z" transform="translate(-641.023 -565.772)" fill="#2f2e41"/>
  <path id="Path_48" data-name="Path 48" d="M589.893,353.425l-2.229,2.392-10.286-7.459,3.289-3.53Z" transform="translate(-437.642 -261.373)" fill="#9f616a"/>
  <path id="Path_49" data-name="Path 49" d="M800.922,575.144l-7.186,7.712-.1-.091a4.1,4.1,0,0,1-.2-5.8h0l4.389-4.71Z" transform="translate(-645.784 -481.542)" fill="#2f2e41"/>
  <path id="Path_50" data-name="Path 50" d="M752.14,424.159l1.046,1.046c5.23,5.23,6.517,12.482,5.889,19.851a20.625,20.625,0,0,1-.523,3.242c-1.886,7.543-.754,31.682-4.526,33.19l-.754,2.64-7.355-.272.189-2.368s-1.7-3.583-.566-5.846,3.583-19.047,3.583-19.047l-1.32-13.766-9.806,4.9s5.092,2.829,4.715,4.715c0,0,3.017.754,2.263,2.64l1.131,2.263-2.64,4.149s-17.727-10.561-16.218-15.841,10.938-9.052,10.938-9.052l.754-5.657-.65-3.083,13.194-5.072Z" transform="translate(-596.382 -368.252)" fill="#2f2e41"/>
  <path id="Path_51" data-name="Path 51" d="M674.889,701.049H567.433a.242.242,0,1,1,0-.484H674.889a.242.242,0,1,1,0,.484Z" transform="translate(-475.131 -578.798)" fill="#4e4e4e"/>
</svg>
