<svg id="Group_2" data-name="Group 2" xmlns="http://www.w3.org/2000/svg" width="200" height="147.037" viewBox="0 0 200 147.037">
  <path id="Path_9" data-name="Path 9" d="M971.738,712.885v-16.7S978.245,708.025,971.738,712.885Z" transform="translate(-785.938 -565.847)" fill="#ffeb00"/>
  <path id="Path_10" data-name="Path 10" d="M932.49,730.885l-12.3-11.291S933.31,722.806,932.49,730.885Z" transform="translate(-746.288 -583.851)" fill="#46c404"/>
  <path id="Path_11" data-name="Path 11" d="M743.239,555.672a2.1,2.1,0,0,1,2.274-2.279l2.217-4.254,2.914.717-3.216,5.964a2.111,2.111,0,0,1-4.189-.148Z" transform="translate(-610.172 -452.739)" fill="#ffb7b7"/>
  <path id="Path_12" data-name="Path 12" d="M621.779,593.921H619.32l-1.17-9.484h3.629Z" transform="translate(-475.476 -449.545)" fill="#ffb7b7"/>
  <path id="Path_13" data-name="Path 13" d="M776.9,756.706h-7.928v-.1a3.086,3.086,0,0,1,3.086-3.086H776.9Z" transform="translate(-629.976 -609.946)" fill="#2f2e41"/>
  <path id="Path_14" data-name="Path 14" d="M699.566,587.077l-2.372.647-3.624-8.842,3.5-.955Z" transform="translate(-533.489 -444.537)" fill="#ffb7b7"/>
  <path id="Path_15" data-name="Path 15" d="M865.682,748.044l-7.649,2.086-.026-.1a3.086,3.086,0,0,1,2.165-3.789h0l4.672-1.274Z" transform="translate(-698.373 -603.37)" fill="#2f2e41"/>
  <path id="Path_16" data-name="Path 16" d="M610.336,446.671,609.109,465.3l2.635,20.9,4.315-1.317.182-18.67,3.452-10.766,10.221,28.755,4.679-1.726-3.861-18.67-2.18-17.534Z" transform="translate(-468.522 -343.261)" fill="#2f2e41"/>
  <path id="Path_17" data-name="Path 17" d="M791.839,437.806l-7.267,1.072-2.618,2.589-.813,9.3.5,8.24-2.1,14.531s5.292-2.938,9.394.74,9.841.65,9.959-1.8Z" transform="translate(-638.102 -367.102)" fill="#cbcbcb"/>
  <path id="Path_18" data-name="Path 18" d="M816.834,449.025v-.01l3.61-11.768.047,0c.257-.017,6.31-.373,7.663,2.615l.007.014-.411,12.229.566,19.152-11.194,2.425-.081.018Z" transform="translate(-666.787 -366.653)" fill="#46c404"/>
  <path id="Path_19" data-name="Path 19" d="M782.95,451.588l.662-9.976c-4.71.293-4.639,3.632-4.634,3.778l-.052,14.922-.943,15.964,3.43-.257Z" transform="translate(-636.904 -370.029)" fill="#46c404"/>
  <path id="Path_20" data-name="Path 20" d="M753.485,513.273l4.182-9.7,2.919-5.36,1.524,9.668-5.291,7.936Z" transform="translate(-618.06 -413.563)" fill="#46c404"/>
  <path id="Path_21" data-name="Path 21" d="M828.195,531.62a2.1,2.1,0,0,1,2.845-1.506l3.373-3.411,2.573,1.545L832.154,533a2.111,2.111,0,0,1-3.959-1.377Z" transform="translate(-675.487 -435.481)" fill="#ffb7b7"/>
  <path id="Path_22" data-name="Path 22" d="M840.651,467.654l6.878-7.546-4.553-6.5.469-3.176,2.683-3.315.052.068c.286.37,7.008,9.1,7.2,12.409s-9.468,11.712-9.879,12.067l-.057.049Z" transform="translate(-685.107 -374.266)" fill="#46c404"/>
  <circle id="Ellipse_2" data-name="Ellipse 2" cx="4.889" cy="4.889" r="4.889" transform="translate(144.655 60.109)" fill="#ffb7b7"/>
  <path id="Path_23" data-name="Path 23" d="M801.637,387.1l.237-.477-1.193-.593a3.5,3.5,0,0,0-3.7-1.539c-2.381.6-3.452.962-3.452.962l-1.19.6.6.594-1.071.36.716.355-.833.479.448,2.453s.744-1.861,2.175-1.15,4.049-.368,4.049-.368l2.274,4.4s.469-1.543,1.306-1.131C802,392.047,804.142,388.644,801.637,387.1Z" transform="translate(-647.495 -326.012)" fill="#2f2e41"/>
  <path id="Path_24" data-name="Path 24" d="M265.563,220.24l-74.344,20.5-24.481-88.768,74.344-20.5Z" transform="translate(-166.738 -131.472)" fill="#fff"/>
  <path id="Path_25" data-name="Path 25" d="M265.563,220.24l-74.344,20.5-24.481-88.768,74.344-20.5Zm-73.394,18.83,71.721-19.78-23.758-86.145-71.721,19.78,13.44,48.734Z" transform="translate(-166.738 -131.472)" fill="#4e4e4e"/>
  <path id="Path_26" data-name="Path 26" d="M335.173,234.93l-18.636,5.139a1.029,1.029,0,0,1-1.265-.718l-5.139-18.636a1.029,1.029,0,0,1,.718-1.265l18.636-5.139a1.029,1.029,0,0,1,1.265.718l5.139,18.636A1.029,1.029,0,0,1,335.173,234.93Zm-24.212-15.082a.618.618,0,0,0-.431.759l5.139,18.636a.618.618,0,0,0,.759.431l18.636-5.139a.618.618,0,0,0,.431-.759l-5.139-18.636a.618.618,0,0,0-.759-.431Z" transform="translate(-277.008 -195.163)" fill="#e5e5e5"/>
  <path id="Path_27" data-name="Path 27" d="M315.139,251.876,296.5,257.016a.927.927,0,0,1-1.138-.646l-5.139-18.636a.926.926,0,0,1,.646-1.138l18.636-5.139a.926.926,0,0,1,1.138.646l5.139,18.636A.927.927,0,0,1,315.139,251.876Z" transform="translate(-261.699 -208.354)" fill="#ffeb00"/>
  <rect id="Rectangle_1" data-name="Rectangle 1" width="53.946" height="2.085" transform="translate(23.024 60.409) rotate(-15.418)" fill="#f1f1f1"/>
  <rect id="Rectangle_2" data-name="Rectangle 2" width="53.946" height="2.085" transform="translate(24.469 65.649) rotate(-15.418)" fill="#f1f1f1"/>
  <rect id="Rectangle_3" data-name="Rectangle 3" width="53.946" height="2.085" transform="translate(25.914 70.888) rotate(-15.418)" fill="#f1f1f1"/>
  <rect id="Rectangle_4" data-name="Rectangle 4" width="53.946" height="2.085" transform="translate(28.458 80.11) rotate(-15.418)" fill="#f1f1f1"/>
  <rect id="Rectangle_5" data-name="Rectangle 5" width="53.946" height="2.085" transform="translate(29.903 85.35) rotate(-15.418)" fill="#f1f1f1"/>
  <rect id="Rectangle_6" data-name="Rectangle 6" width="53.946" height="2.085" transform="translate(31.348 90.59) rotate(-15.418)" fill="#f1f1f1"/>
  <path id="Path_28" data-name="Path 28" d="M441.006,296.742H363.887V204.661h77.119Z" transform="translate(-318.384 -187.768)" fill="#fff"/>
  <path id="Path_29" data-name="Path 29" d="M441.006,296.742H363.887V204.661h77.119Zm-75.758-1.361h74.4V206.021h-74.4Z" transform="translate(-318.384 -187.768)" fill="#4e4e4e"/>
  <rect id="Rectangle_7" data-name="Rectangle 7" width="44.092" height="2.085" transform="translate(64.489 56.477)" fill="#ffeb00"/>
  <rect id="Rectangle_8" data-name="Rectangle 8" width="44.092" height="2.085" transform="translate(64.489 61.897)" fill="#ffeb00"/>
  <rect id="Rectangle_9" data-name="Rectangle 9" width="44.092" height="2.085" transform="translate(64.489 67.318)" fill="#ffeb00"/>
  <circle id="Ellipse_3" data-name="Ellipse 3" cx="1.361" cy="1.361" r="1.361" transform="translate(59.544 56.465)" fill="#4e4e4e"/>
  <rect id="Rectangle_10" data-name="Rectangle 10" width="44.092" height="2.085" transform="translate(64.489 33.122)" fill="#e5e5e5"/>
  <rect id="Rectangle_11" data-name="Rectangle 11" width="44.092" height="2.085" transform="translate(64.489 38.542)" fill="#e5e5e5"/>
  <rect id="Rectangle_12" data-name="Rectangle 12" width="44.092" height="2.085" transform="translate(64.489 43.962)" fill="#e5e5e5"/>
  <circle id="Ellipse_4" data-name="Ellipse 4" cx="1.361" cy="1.361" r="1.361" transform="translate(59.544 32.883)" fill="#e5e5e5"/>
  <rect id="Rectangle_13" data-name="Rectangle 13" width="44.092" height="2.085" transform="translate(64.489 80.059)" fill="#e5e5e5"/>
  <rect id="Rectangle_14" data-name="Rectangle 14" width="44.092" height="2.085" transform="translate(64.489 85.479)" fill="#e5e5e5"/>
  <rect id="Rectangle_15" data-name="Rectangle 15" width="44.092" height="2.085" transform="translate(64.489 90.9)" fill="#e5e5e5"/>
  <circle id="Ellipse_5" data-name="Ellipse 5" cx="1.361" cy="1.361" r="1.361" transform="translate(59.544 79.82)" fill="#e5e5e5"/>
  <circle id="Ellipse_6" data-name="Ellipse 6" cx="15.763" cy="15.763" r="15.763" transform="translate(103.259 85.378)" fill="#46c404"/>
  <path id="Path_30" data-name="Path 30" d="M665,540.715V537.7a4.367,4.367,0,0,0-8.734,0v3.016a2.271,2.271,0,0,0-2.169,2.267v7.127H667.17v-7.127A2.271,2.271,0,0,0,665,540.715Zm-4.367-5.846a2.833,2.833,0,0,1,2.829,2.83v3.011H657.8V537.7A2.833,2.833,0,0,1,660.634,534.87Z" transform="translate(-541.612 -440.58)" fill="#fff"/>
  <path id="Path_31" data-name="Path 31" d="M679.674,576.652a1.175,1.175,0,1,0-1.836.971v2.554h1.322v-2.554A1.174,1.174,0,0,0,679.674,576.652Z" transform="translate(-559.477 -472.997)" fill="#4e4e4e"/>
  <path id="Path_32" data-name="Path 32" d="M738.43,766.584H650.493a.231.231,0,1,1,0-.462H738.43a.231.231,0,0,1,0,.462Z" transform="translate(-538.661 -619.64)" fill="#4e4e4e"/>
</svg>
