<svg id="Group_11" data-name="Group 11" xmlns="http://www.w3.org/2000/svg" xmlns:xlink="http://www.w3.org/1999/xlink" width="200" height="156.282" viewBox="0 0 200 156.282">
  <defs>
    <linearGradient id="linear-gradient" x1="-9.497" y1="1" x2="-9.497" gradientUnits="objectBoundingBox">
      <stop offset="0" stop-color="gray" stop-opacity="0.251"/>
      <stop offset="0.54" stop-color="gray" stop-opacity="0.122"/>
      <stop offset="1" stop-color="gray" stop-opacity="0.102"/>
    </linearGradient>
  </defs>
  <circle id="Ellipse_41" data-name="Ellipse 41" cx="1.73" cy="1.73" r="1.73" transform="translate(2.858 0)" fill="#e32323"/>
  <circle id="Ellipse_42" data-name="Ellipse 42" cx="1.73" cy="1.73" r="1.73" transform="translate(8.541 0)" fill="#ffcf63"/>
  <circle id="Ellipse_43" data-name="Ellipse 43" cx="1.73" cy="1.73" r="1.73" transform="translate(14.224 0)" fill="#46c404"/>
  <rect id="Rectangle_59" data-name="Rectangle 59" width="159.146" height="0.203" transform="translate(0 5.825)" fill="#3c354c"/>
  <rect id="Rectangle_60" data-name="Rectangle 60" width="63.23" height="77.699" transform="translate(2.858 18.25)" fill="#ffeb00"/>
  <rect id="Rectangle_61" data-name="Rectangle 61" width="63.23" height="77.697" transform="translate(93.059 39.506)" fill="#46c404"/>
  <path id="Path_201" data-name="Path 201" d="M688.663,326.005c.2-.581.522-1.122.685-1.715a6.514,6.514,0,0,0,.045-2.455,2.094,2.094,0,0,0-.3-1.016c-.276-.378-.76-.535-1.132-.813-.906-.681-1.032-1.941-1.35-3.022a7.291,7.291,0,0,0-2.368-3.567,2.382,2.382,0,0,0-2.528-.581c-.339.189-.587.518-.935.691a2.9,2.9,0,0,1-1.482.128.733.733,0,0,0-.236-.187,2.811,2.811,0,0,0-1.844.23,1.724,1.724,0,0,0-.909.764,1.438,1.438,0,0,0-.1.285c-.061.244-.081.5-.157.744a2.1,2.1,0,0,1-.254.516c-.3.449-.748.825-1.055,1.283a2.96,2.96,0,0,0-.341.691h0a6,6,0,0,0-.25,2.224,10.627,10.627,0,0,1-.083,3.018c-.077.3-.187.61-.278.9-.016.049-.035.1-.049.15l-.037.146c-.016.071-.032.142-.045.213h0c-.024.146-.039.295-.049.445v.224a3.732,3.732,0,0,1-.018.451,3.375,3.375,0,0,1-.089.665,2.932,2.932,0,0,1-.289.7h0c-.14.252-.3.49-.468.726l-.545.791a3.232,3.232,0,0,0-1.858.27,2.439,2.439,0,0,0-1.059,1.378.406.406,0,0,0-.124.071,2.236,2.236,0,0,0-.352.852v.01c-.24.872-.457,2.112-.528,2.388-.163.61-.291,1.246-.406,1.876-.232,1.291-.39,2.593-.61,3.886-.045.264-.335,2.014-.622,3.018a.242.242,0,0,1-.02.075c-.112.374-.219.628-.313.628h.285c-.051.12-.1.244-.144.368a7.661,7.661,0,0,0-.23.78.061.061,0,0,0,0,.016,15.423,15.423,0,0,0-.339,2.476,101.377,101.377,0,0,0-.041,14.573,7.442,7.442,0,0,0,.364,2.116,3.078,3.078,0,0,0,.571.953l.037.041c-.022.1-.043.191-.067.289q-1.016,4.494-2.378,8.906c-.02.063-.039.128-.061.191-.055.183-.112.368-.169.551-.035.118-.071.236-.1.356-.024.077-.045.154-.065.228a10.432,10.432,0,0,0-.327,1.626,10.737,10.737,0,0,0,.167,3.049h6.476c0-.045-.012-.087-.016-.132a6,6,0,0,1,.01-2.715,8.784,8.784,0,0,1,.831-1.553c.61-1.051.951-2.236,1.506-3.307.813-1.565,2.055-2.929,2.628-4.573q.091-.26.159-.53a13.483,13.483,0,0,1,.465,3.594,44.971,44.971,0,0,0,1.516,9.217h6.539c-.108-1.711-.26-3.425-.356-5.13a13.3,13.3,0,0,1,.055-2.8,14.442,14.442,0,0,1,.512-2,36.567,36.567,0,0,0,1.762-7.205c.244-2.463.419-5.943-.937-8.024a.691.691,0,0,0-.087-.112,1.864,1.864,0,0,0,0-.563c-.368-3.388-2.307-6.64-1.746-10a12.781,12.781,0,0,1,.795-2.569,46.216,46.216,0,0,0,2.248-6.388,9.786,9.786,0,0,0,.476-1.874,10.407,10.407,0,0,0,.154-1.705,3.986,3.986,0,0,0-.055-.648,10.834,10.834,0,0,0,2.059.791,1.789,1.789,0,0,0,.185.016.267.267,0,0,1-.024-.041.892.892,0,0,1-.136-.443,1.366,1.366,0,0,0,.386.03h0a1.478,1.478,0,0,0,.717-.222A4.514,4.514,0,0,1,688.663,326.005ZM668.948,356.4c-.11.232-.2.465-.3.705v-.026a5.606,5.606,0,0,1-.189-2.943c.016-.061.031-.122.045-.181s.041-.154.061-.234a2.158,2.158,0,0,0,1.075,1.423c-.059.1-.118.189-.175.285a10.884,10.884,0,0,0-.522.972Zm.909-6.722c-.183.362-.406.7-.628,1.049a43.813,43.813,0,0,0,.671-5.423h0c.018-.295.033-.591.045-.886a12.6,12.6,0,0,1,.287,2.069,6.5,6.5,0,0,1-.165,2.717,3.547,3.547,0,0,1-.219.474Z" transform="translate(-550.677 -262.426)" fill="url(#linear-gradient)"/>
  <path id="Path_202" data-name="Path 202" d="M706.851,319.185a1.693,1.693,0,0,0-.9.758,7.281,7.281,0,0,0-.25,1.016c-.219.707-.878,1.173-1.287,1.789a4.962,4.962,0,0,0-.583,2.9,11.122,11.122,0,0,1-.083,3c-.118.474-.321.927-.406,1.409-.1.585-.016,1.2-.161,1.772a4.578,4.578,0,0,1-.746,1.423l-1.3,1.9a14.87,14.87,0,0,0,1.715-.518,3.081,3.081,0,0,1-.927,1.4l.939-1.138a2.673,2.673,0,0,1,.7-.663,3.536,3.536,0,0,1,1.14-.3,2.668,2.668,0,0,0,1.856-1.2c.486-.892.175-2.014.447-2.994a11.386,11.386,0,0,1,1.026-1.965c.768-1.492.722-3.252.961-4.913a15.259,15.259,0,0,0,.264-2.12c0-.526-.053-1.528-.61-1.795A2.744,2.744,0,0,0,706.851,319.185Z" transform="translate(-580.583 -267.376)" fill="#192534"/>
  <path id="Path_203" data-name="Path 203" d="M685.176,521.4a37.393,37.393,0,0,1-1.732,7.163,13.973,13.973,0,0,0-.5,1.984,13.415,13.415,0,0,0-.055,2.785c.091,1.646.236,3.3.339,4.945h-6.459a45.333,45.333,0,0,1-1.449-9.006,15.384,15.384,0,0,0-.368-3.274c-.026-.1-.057-.2-.089-.3-.455,1.876-1.864,3.354-2.738,5.081-.547,1.071-.886,2.236-1.48,3.287a8.359,8.359,0,0,0-.813,1.543,5.978,5.978,0,0,0-.012,2.677h-6.378a10.489,10.489,0,0,1-.14-2.874,11.5,11.5,0,0,1,.441-2.033c.032-.12.069-.238.1-.356.057-.183.114-.368.169-.551q1.38-4.518,2.406-9.146c.02-.1.043-.2.063-.291q.175-.793.337-1.587a32.787,32.787,0,0,1,1.4-5.415l.128-.311c.1-.23.2-.457.311-.679a10.106,10.106,0,0,1,.533-.949,8.827,8.827,0,0,1,.6-.843c3.571-.309,7.278-2.091,10.772-1.264a5.116,5.116,0,0,1,1.638.671c.6.386,1.522.161,1.976.654a.944.944,0,0,1,.085.112C685.587,515.5,685.416,518.955,685.176,521.4Z" transform="translate(-550.4 -421.075)" fill="#192534"/>
  <path id="Path_204" data-name="Path 204" d="M705.356,367.137c-.077.874-.26,1.9-1.055,2.268a5.354,5.354,0,0,1-1.461.2,3.057,3.057,0,0,0-2.108,1.689,7.591,7.591,0,0,0-.673,2.7,5.193,5.193,0,0,0,.474,3.4,3.923,3.923,0,0,0,2.323,1.522,6.48,6.48,0,0,0,5.411-1,12.155,12.155,0,0,0,1.992-1.967c1.325-1.543,2.661-3.234,2.931-5.25a.658.658,0,0,0-.159-.642.691.691,0,0,0-.425-.083l-1.272.022a.883.883,0,0,1-1.108-1.087l.1-3.685a.52.52,0,0,0-.083-.372.486.486,0,0,0-.293-.126,20.6,20.6,0,0,1-2.118-.191c-.652-.179-1.675-.929-2.154-.159C705.273,365.049,705.423,366.395,705.356,367.137Z" transform="translate(-579.663 -303.371)" fill="#ffc1c7"/>
  <path id="Path_205" data-name="Path 205" d="M705.356,367.137c-.077.874-.26,1.9-1.055,2.268a5.354,5.354,0,0,1-1.461.2,3.057,3.057,0,0,0-2.108,1.689,7.591,7.591,0,0,0-.673,2.7,5.193,5.193,0,0,0,.474,3.4,3.923,3.923,0,0,0,2.323,1.522,6.48,6.48,0,0,0,5.411-1,12.155,12.155,0,0,0,1.992-1.967c1.325-1.543,2.661-3.234,2.931-5.25a.658.658,0,0,0-.159-.642.691.691,0,0,0-.425-.083l-1.272.022a.883.883,0,0,1-1.108-1.087l.1-3.685a.52.52,0,0,0-.083-.372.486.486,0,0,0-.293-.126,20.6,20.6,0,0,1-2.118-.191c-.652-.179-1.675-.929-2.154-.159C705.273,365.049,705.423,366.395,705.356,367.137Z" transform="translate(-579.663 -303.371)" opacity="0.1"/>
  <circle id="Ellipse_44" data-name="Ellipse 44" cx="4.858" cy="4.858" r="4.858" transform="translate(124.037 53.813)" fill="#ffc1c7"/>
  <path id="Path_206" data-name="Path 206" d="M692.893,393.786a2.213,2.213,0,0,1-2.051-.892,2.737,2.737,0,0,1-.167-1.579l.283-2.992a3.749,3.749,0,0,0-2.248.23,3.246,3.246,0,0,0-1.3,2.62c-.185,1.9.116,3.811.012,5.713-.087,1.6-.455,3.252.014,4.776.2.638.532,1.219.746,1.86a10.366,10.366,0,0,1,.406,2.5,6.523,6.523,0,0,1-.161,2.7,15.964,15.964,0,0,1-1.1,2,3.109,3.109,0,0,0,.167,3.518,3.423,3.423,0,0,0,3.23.61,19.611,19.611,0,0,1,3.331-.813c2.02-.085,3.821,1.219,5.8,1.65a1.757,1.757,0,0,0,.813.028,1.978,1.978,0,0,0,.65-.356l1.081-.776a1.5,1.5,0,0,0,.522-.531,1.388,1.388,0,0,0,.067-.758c-.362-3.368-2.268-6.6-1.717-9.947a12.992,12.992,0,0,1,.782-2.553c1.372-3.508,3.016-7.154,2.484-10.884a4.143,4.143,0,0,0-.929-2.28,1.974,1.974,0,0,0-2.268-.524,3.62,3.62,0,0,0-1.323,2.018,9.286,9.286,0,0,1-2.892,3.715,3.63,3.63,0,0,1-1.884.955C694.474,393.823,693.673,393.772,692.893,393.786Z" transform="translate(-569.21 -321.609)" fill="#f2f2f2"/>
  <path id="Path_207" data-name="Path 207" d="M674.745,455.063c-1.177,1.307-1.409,3.189-1.539,4.945a102.268,102.268,0,0,0-.039,14.488,7.354,7.354,0,0,0,.36,2.1,2.617,2.617,0,0,0,1.384,1.555.957.957,0,0,0,1.219-.291c.177-.382-.085-.813-.285-1.177a4.282,4.282,0,0,1-.429-2.785,1.294,1.294,0,0,1,.394.787l.38,1.626c.522-.077.717-.713.8-1.234a5.088,5.088,0,0,0-.079-2.821c-.2-.467-.539-.866-.74-1.331a5.824,5.824,0,0,1-.382-3.754,43.93,43.93,0,0,0,1.423-12.8,5.444,5.444,0,0,1-2.469.693Z" transform="translate(-558.106 -375.34)" fill="#ffc1c7"/>
  <path id="Path_208" data-name="Path 208" d="M676.39,414.3a17.919,17.919,0,0,1,4.3.567,9.307,9.307,0,0,0,0-2.791l-.61-6.386c-.045-.476.041-4.817-.874-4.051-.337.283-.762,2.823-.868,3.232-.159.61-.285,1.238-.406,1.864-.228,1.285-.384,2.579-.61,3.862C677.266,410.967,676.717,414.3,676.39,414.3Z" transform="translate(-560.864 -333.251)" fill="#f2f2f2"/>
  <path id="Path_209" data-name="Path 209" d="M733.017,317.055a.838.838,0,0,1,.1-.435.736.736,0,0,1,.52-.276c.7-.108,1.469.175,2.1-.146.344-.173.585-.5.921-.687a2.318,2.318,0,0,1,2.484.579,7.234,7.234,0,0,1,2.329,3.547c.309,1.073.435,2.327,1.325,3,.368.281.844.435,1.112.813a2.075,2.075,0,0,1,.295,1.016,6.554,6.554,0,0,1-.045,2.439c-.161.589-.478,1.126-.673,1.705a4.52,4.52,0,0,0,1.234,4.709,1.451,1.451,0,0,1-1.087.189.937.937,0,0,0,.159.48c-1.138-.035-2.126-1.142-3.238-.9-.848.183-1.321,1.061-1.955,1.654a2.934,2.934,0,0,1-3.108.634,2.261,2.261,0,0,1-1.219-2.78c.494-1.177,2.02-1.64,2.551-2.8.406-.9.106-1.949.193-2.935a14.145,14.145,0,0,1,.669-2.451,3.044,3.044,0,0,0-.163-2.463,4.012,4.012,0,0,0-2.289-1.329C733.316,319.981,732.944,319.008,733.017,317.055Z" transform="translate(-605.974 -264.559)" fill="#192534"/>
  <path id="Path_210" data-name="Path 210" d="M724.977,379.559a3.731,3.731,0,0,1-.031-2.047c.453-1.207,1.939-1.583,2.968-2.36a4.017,4.017,0,0,0,1.321-1.76c.187-.492.2-1.165-.248-1.423a1.1,1.1,0,0,0-.573-.1,7.2,7.2,0,0,0-4.3,1.937,5.84,5.84,0,0,0-1.75,2.148,7.153,7.153,0,0,0-.406,1.931l-.25,2.179a33.2,33.2,0,0,0-.291,3.758,16.918,16.918,0,0,0,.134,2.152,2.47,2.47,0,0,0,3.03,2.421,4.438,4.438,0,0,0,1.077-.067c1.581-.344,2.783-2.561,1.585-3.931-.51-.581-1.274-.6-1.563-1.394A23.861,23.861,0,0,1,724.977,379.559Z" transform="translate(-596.741 -309.604)" fill="#ffc1c7"/>
  <path id="Path_211" data-name="Path 211" d="M739.737,398.241l-1.25,2.043a.917.917,0,0,0-.152.352,1.086,1.086,0,0,0,.321.717c1.077,1.469.813,3.494.48,5.285a9.589,9.589,0,0,0,6.6-7.768c.159-1.067.406-2.827-.537-3.522C742.912,393.674,740.808,396.495,739.737,398.241Z" transform="translate(-610.214 -327.905)" fill="#f2f2f2"/>
  <path id="Path_212" data-name="Path 212" d="M703.762,374.72a5.576,5.576,0,0,0,1.461-.2c.795-.366.978-1.394,1.055-2.268,0-.079.012-.169.014-.262a7.078,7.078,0,0,0-.923-.813,4.623,4.623,0,0,0-.945-.406l-.866-.317a5.1,5.1,0,0,0-.2.722c-.1.585-.016,1.2-.161,1.772a4.577,4.577,0,0,1-.746,1.423l-1.3,1.9c.236-.057.467-.12.7-.187A2.927,2.927,0,0,1,703.762,374.72Z" transform="translate(-580.591 -308.476)" fill="#192534"/>
  <path id="Path_213" data-name="Path 213" d="M841.022,522.1s-8.461-4.14-6.835-.99,6.835,3.506,6.835,3.506Z" transform="translate(-686.422 -427.575)" fill="#ffc1c7"/>
  <path id="Path_214" data-name="Path 214" d="M719.27,450.46,719,451l6.39,3.329.27-.539Z" transform="translate(-572.862 -358.903)" fill="#192534"/>
  <path id="Path_215" data-name="Path 215" d="M870.359,529.029s-.541,1.352-2.61.541a9.655,9.655,0,0,0-3.691-.719s-1.35,2.7,0,3.689,7.02,2.7,7.2,1.711S870.359,529.029,870.359,529.029Z" transform="translate(-709.91 -434.681)" fill="#ffcf63"/>
  <path id="Path_216" data-name="Path 216" d="M870.359,529.029s-.541,1.352-2.61.541a9.657,9.657,0,0,0-3.691-.719s-1.35,2.7,0,3.689,7.02,2.7,7.2,1.711S870.359,529.029,870.359,529.029Z" transform="translate(-709.91 -434.681)" opacity="0.1"/>
  <circle id="Ellipse_45" data-name="Ellipse 45" cx="5.671" cy="5.671" r="5.671" transform="translate(158.963 67.299)" fill="#ff6584"/>
  <path id="Path_217" data-name="Path 217" d="M897.19,469.212v-.99s1.35-1.709,2.88-.539-.813,5.22-.813,5.22l-1.7-.99Z" transform="translate(-736.786 -385.62)" fill="#ff9363"/>
  <path id="Path_218" data-name="Path 218" d="M915.061,802.85l-1.711,1.982s3.061.719,3.15.813,3.15-.27,3.15-.27l-.274-3.154Z" transform="translate(-749.661 -652.488)" fill="#ffc1c7"/>
  <path id="Path_219" data-name="Path 219" d="M953.65,787.861l.813,3.421,3.51-.813,1.8-2.791a5.514,5.514,0,0,1-1.626-1.8C957.782,784.977,953.65,787.861,953.65,787.861Z" transform="translate(-781.77 -639.329)" fill="#ffc1c7"/>
  <path id="Path_220" data-name="Path 220" d="M926.57,650.921l-.36,5.85a4.535,4.535,0,0,0-.27,3.061c.449,1.709.27,8.911.27,8.911s-.63,9.9-.813,10.531-.813.9-.36,1.441c0,0-6.03,1.35-5.941-.9a7.454,7.454,0,0,0,.813-2.97c0-1.439.27-9.362.27-9.362l2.159-20.252Z" transform="translate(-754.238 -529)" fill="#3f3d56"/>
  <path id="Path_221" data-name="Path 221" d="M926.57,650.921l-.36,5.85a4.535,4.535,0,0,0-.27,3.061c.449,1.709.27,8.911.27,8.911s-.63,9.9-.813,10.531-.813.9-.36,1.441c0,0-6.03,1.35-5.941-.9a7.454,7.454,0,0,0,.813-2.97c0-1.439.27-9.362.27-9.362l2.159-20.252Z" transform="translate(-754.238 -529)" opacity="0.1"/>
  <path id="Path_222" data-name="Path 222" d="M899.8,592.156s-2.52,14.943-2.439,19.715a19.8,19.8,0,0,0,1.35,7.469l6.752,9.181a1.591,1.591,0,0,0,.179,1.53,3.568,3.568,0,0,1,.722,1.98c0,.539,1.079.9,1.439,1.626s1.35,2.791,3.691,1.171,3.15-2.25,2.7-3.51-1.439-2.069-1.528-2.7-2.063-2.169-2.333-3.978-4.86-9.181-4.86-9.181,4.589-9.181,4.77-10.89a5.318,5.318,0,0,1,.719-2.439s2.791-5.311,1.26-7.74S899.8,592.156,899.8,592.156Z" transform="translate(-736.921 -485.117)" fill="#3f3d56"/>
  <path id="Path_223" data-name="Path 223" d="M888.7,810.131s-2.439-.36-2.439-1.711l-3.331,1.89s-6.571.27-3.78,2.52,15.041-.72,15.041-.72-.9-2.963-1.8-3.24A6,6,0,0,1,888.7,810.131Z" transform="translate(-721.865 -657.428)" fill="#3f3d56"/>
  <path id="Path_224" data-name="Path 224" d="M888.7,810.131s-2.439-.36-2.439-1.711l-3.331,1.89s-6.571.27-3.78,2.52,15.041-.72,15.041-.72-.9-2.963-1.8-3.24A6,6,0,0,1,888.7,810.131Z" transform="translate(-721.865 -657.428)" opacity="0.1"/>
  <path id="Path_225" data-name="Path 225" d="M933.726,793.22s-2.618,3.691-4.951,2.7c0,0-1.358-1.384-1.848-.61s-1.571,2.941-2.742,3.211-5.311,1.626-1.26,2.7,11.7-2.52,12.421-3.961S933.726,793.22,933.726,793.22Z" transform="translate(-755.904 -645.318)" fill="#3f3d56"/>
  <path id="Path_226" data-name="Path 226" d="M896.107,445.265a6.884,6.884,0,0,1,.75,1.38,2.236,2.236,0,0,1,.037,1.541c-.087.23-.228.437-.319.665a2.236,2.236,0,0,0,.049,1.65,4.064,4.064,0,0,0,.982,1.364.845.845,0,0,0,.451.272.732.732,0,0,0,.624-.337,4.326,4.326,0,0,0,.626-1.844,2.4,2.4,0,0,1,.943-1.659,2.665,2.665,0,0,1,1-.266l1.278-.165a1.127,1.127,0,0,0,.659-.234c.258-.25.919.545.705.256a12.743,12.743,0,0,0-1.573-1.87,1.958,1.958,0,0,1-.825-.671,2.123,2.123,0,0,1-.2-1,3.783,3.783,0,0,0-.433-1.874,2.709,2.709,0,0,0-1.636-1.1,8.041,8.041,0,0,0-2-.181,3.252,3.252,0,0,0-1.254.154,1.411,1.411,0,0,0-.636.492,1.932,1.932,0,0,0-.406,1.594A12.111,12.111,0,0,0,896.107,445.265Z" transform="translate(-734.928 -364.836)" fill="#ffc1c7"/>
  <circle id="Ellipse_46" data-name="Ellipse 46" cx="5.22" cy="5.22" r="5.22" transform="translate(157.839 69.417)" fill="#ffc1c7"/>
  <path id="Path_227" data-name="Path 227" d="M904.674,470.577a3.484,3.484,0,0,0-3.516-1.965c-1.494.163-3.132.559-3.325,1.516-.36,1.8-.99,3.78-.99,2.25s-.034-2.616-.034-2.616-1.4-1.165-1.675-.445a21.375,21.375,0,0,0-.451,5.488c.089,1.978.181,8.1.181,8.1s.181,6.122.72,7.742a7.958,7.958,0,0,1,.27,3.329s-.719.722.99.99,2.612-1.26,5.4.63,8.913,2.88,9.181,1.626-1.709-6.482-1.169-10.352-5.581-16.293-5.581-16.293Z" transform="translate(-734.773 -386.671)" fill="#ff9363"/>
  <path id="Path_228" data-name="Path 228" d="M906.245,590.85s-1.35,2.159-1.8,2.25-.63.99.449.539.719-.449.719-.449-.9,1.441.63,1.709,2.341.453,2.341-.36-.181-2.97-.181-2.97Z" transform="translate(-742.285 -484.08)" fill="#ffc1c7"/>
  <path id="Path_229" data-name="Path 229" d="M911.223,475.208a5.567,5.567,0,0,0-.63,5.581c1.35,3.24,4.5,8.911,4.5,8.911s1.439.813.813,1.439-.719.451-1.169.99-3.6,4.5-3.6,4.5-1.8,1.079-1.26,2.339,2.7,1.8,2.7,1.8a1.551,1.551,0,0,1,1.626-.99c1.26.089,3.51-1.8,3.51-1.8s3.51-6.031,3.862-6.661.813-.813.181-2.439-5.228-13.132-7.2-13.673A5.63,5.63,0,0,0,911.223,475.208Z" transform="translate(-746.813 -391.751)" opacity="0.1"/>
  <path id="Path_230" data-name="Path 230" d="M912.991,474.3a5.573,5.573,0,0,0-.63,5.581c1.35,3.24,4.5,8.911,4.5,8.911s1.441.813.813,1.441-.722.449-1.171.99-3.6,4.5-3.6,4.5-1.8,1.079-1.26,2.339,2.7,1.795,2.7,1.795a1.553,1.553,0,0,1,1.626-.99c1.26.089,3.51-1.8,3.51-1.8s3.51-6.031,3.872-6.661.813-.813.179-2.429-5.219-13.142-7.2-13.683A5.613,5.613,0,0,0,912.991,474.3Z" transform="translate(-748.22 -391.024)" fill="#ffcf63"/>
  <circle id="Ellipse_47" data-name="Ellipse 47" cx="5.445" cy="5.445" r="5.445" transform="translate(160.585 67.931)" fill="#ff6584"/>
  <ellipse id="Ellipse_48" data-name="Ellipse 48" cx="1.756" cy="2.791" rx="1.756" ry="2.791" transform="translate(166.447 67.763) rotate(-42.44)" fill="#ff6584"/>
  <ellipse id="Ellipse_49" data-name="Ellipse 49" cx="3.87" cy="1.801" rx="3.87" ry="1.801" transform="translate(157.165 68.65)" fill="#ff6584"/>
  <ellipse id="Ellipse_50" data-name="Ellipse 50" cx="0.811" cy="1.215" rx="0.811" ry="1.215" transform="translate(161.035 74.591)" fill="#ffc1c7"/>
  <rect id="Rectangle_62" data-name="Rectangle 62" width="58.13" height="0.203" transform="translate(141.87 156.079)" fill="#3c354c"/>
  <path id="Path_231" data-name="Path 231" d="M341.146,387.462a20.821,20.821,0,0,1-5.411.522H335.1l-.823-1.673.823-1.4s.752-.2,1.756-.388c1.48-.266,3.5-.476,4.472.124C342.945,385.633,342.76,386.838,341.146,387.462Z" transform="translate(-288.288 -319.482)" fill="#a0616a"/>
  <path id="Path_232" data-name="Path 232" d="M335.735,388.967H335.1l-.823-1.673.823-1.4s.752-.2,1.756-.388C336.052,386.106,334.091,387.4,335.735,388.967Z" transform="translate(-288.288 -320.475)" opacity="0.1"/>
  <path id="Path_233" data-name="Path 233" d="M269.162,299.737l.364-.417a20.659,20.659,0,0,1,2.065,4.065c.2,1.108.445,2.4.445,2.4s.476,1.451.783,2.094a6.794,6.794,0,0,1,.61,1.535,1.338,1.338,0,0,0,.474,1.283,2.39,2.39,0,0,1,.726,1.451s2.122,2.065,3.238,2.122,4.325.61,4.213,1.171,1.339.894,1.925,1.033-3.766,1.815-1.22,3.963c0,0-1.626.335-1.787.726s-1.868-.224-1.868-.224a1.772,1.772,0,0,0-1.626-.921,2.492,2.492,0,0,1-1.9-.7,7.024,7.024,0,0,0-1.953-.978c-.7-.2-1.626-.279-1.648-.474s-4.185-18.14-4.185-18.14Z" transform="translate(-235.336 -251.804)" fill="#192534"/>
  <path id="Path_234" data-name="Path 234" d="M269.162,299.737l.364-.417a20.659,20.659,0,0,1,2.065,4.065c.2,1.108.445,2.4.445,2.4s.476,1.451.783,2.094a6.794,6.794,0,0,1,.61,1.535,1.338,1.338,0,0,0,.474,1.283,2.39,2.39,0,0,1,.726,1.451s2.122,2.065,3.238,2.122,4.325.61,4.213,1.171,1.339.894,1.925,1.033-3.766,1.815-1.22,3.963c0,0-1.626.335-1.787.726s-1.868-.224-1.868-.224a1.772,1.772,0,0,0-1.626-.921,2.492,2.492,0,0,1-1.9-.7,7.024,7.024,0,0,0-1.953-.978c-.7-.2-1.626-.279-1.648-.474s-4.185-18.14-4.185-18.14Z" transform="translate(-235.336 -251.804)" opacity="0.05"/>
  <path id="Path_235" data-name="Path 235" d="M229.049,441.851h-8.622a4.368,4.368,0,0,1-.736-1.868,3.59,3.59,0,0,0-.085-1.589s-.268-.463-.594-1.016c-.4-.679-.876-1.494-1.039-1.748a22.843,22.843,0,0,1-.976-2.488c-.118-.335-.2-.567-.2-.567a65.892,65.892,0,0,1-.628,6.781,14.049,14.049,0,0,0-.406,2.5h-6.768a2.409,2.409,0,0,0-.181-.569c-.313-.61.313-2.7.313-2.7s-.61-4.065-.585-4.687a13.842,13.842,0,0,0-.522-2.492s-.545-.961-.419-1.256-.419-1.045-.272-1.38a3.713,3.713,0,0,0-.406-1.967,12.079,12.079,0,0,1-.447-1.929c-.016-.085-.03-.169-.045-.25-.1-.61-.177-1.108-.177-1.108l1.1-.888.047-.039,2.3-1.856,3.14-.823.191-.051,5.285-1.386,2.262-.728.634-.2.362-.118,3.161,4.98s.27.431.537.961l.079.161a3.341,3.341,0,0,1,.431,1.453,2,2,0,0,0,.293,1.3s1.884,5.965,1.841,7.683a38.525,38.525,0,0,0,.671,5.488A10.044,10.044,0,0,1,229.049,441.851Z" transform="translate(-186.28 -345.9)" fill="#192534"/>
  <path id="Path_236" data-name="Path 236" d="M223.239,261.68c-.134-.055-9.238-3.815-7.984-4.561.744-.445,1.659-2.323,2.287-3.795.439-1.028.736-1.858.736-1.858s7.307-1.3,4.691,3.183a8.244,8.244,0,0,0-.921,2.205A4.932,4.932,0,0,0,223.239,261.68Z" transform="translate(-193.361 -213.538)" fill="#a0616a"/>
  <path id="Path_237" data-name="Path 237" d="M232.377,254.649a8.243,8.243,0,0,0-.921,2.205,5.106,5.106,0,0,1-4.315-3.033,4.924,4.924,0,0,1-.191-.5c.439-1.028.736-1.858.736-1.858S234.993,250.17,232.377,254.649Z" transform="translate(-202.773 -213.538)" opacity="0.1"/>
  <path id="Path_238" data-name="Path 238" d="M235.985,232.773a5.1,5.1,0,1,1-.2-1.423A5.1,5.1,0,0,1,235.985,232.773Z" transform="translate(-201.839 -194.718)" fill="#a0616a"/>
  <path id="Path_239" data-name="Path 239" d="M225.386,423.563a3.135,3.135,0,0,0-.742,1.411s-2.51,1.717-2.343.628-1.3-5.488-1.3-5.488l.167,6s-8.037-.376-8.622-.961-4.018-1.717-4.018-1.717-1.051.844-2.018,1.484c-.128-.722-.222-1.358-.222-1.358l3.455-2.785,8.622-2.26,3.252-1.047,3.161,4.982Q225.11,422.992,225.386,423.563Z" transform="translate(-186.312 -345.939)" opacity="0.1"/>
  <path id="Path_240" data-name="Path 240" d="M220.507,305.608a2.81,2.81,0,0,0-.921,1.549s-2.512,1.717-2.346.628-1.3-5.488-1.3-5.488l.167,5.986s-8.037-.376-8.622-.961-4.018-1.717-4.018-1.717-2.972,2.386-3.516,2.177.961-4.268.961-4.268l1.549-23.78s-.417-7.073.2-7.317a.864.864,0,0,0,.264-.165,2.7,2.7,0,0,0,.573-1.76c.043-.754,1.047-.378,1.047-.378l-.585.754,5.187,3.154.045.026a5.967,5.967,0,0,1,.624-.283,2.257,2.257,0,0,1,1.47-.177,1.411,1.411,0,0,1,.549.494,6.2,6.2,0,0,1,.707,1.423l1.882,3.181s.963,4.228.963,4.4.293,4.018.628,4.437a6.982,6.982,0,0,1,.545,3.138,17.151,17.151,0,0,0,.2,2.972c1.38,1.13,2.091,4.982,2.091,4.982s2.177,4.311,2.346,4.815A2.275,2.275,0,0,1,220.507,305.608Z" transform="translate(-181.17 -228.458)" fill="#f2f2f2"/>
  <path id="Path_241" data-name="Path 241" d="M221.322,274.845a10.714,10.714,0,0,1-1.978,1.813l-4.244-3.583a2.7,2.7,0,0,0,.573-1.76c.043-.754,1.047-.376,1.047-.376l-.122.156a.675.675,0,0,0,.183.99Z" transform="translate(-193.332 -229.115)" opacity="0.1"/>
  <path id="Path_242" data-name="Path 242" d="M221.322,274.021a10.792,10.792,0,0,1-1.978,1.813l-4.244-3.583a2.7,2.7,0,0,0,.573-1.76c.043-.754,1.047-.378,1.047-.378l-.122.157a.675.675,0,0,0,.183.99Z" transform="translate(-193.332 -228.458)" fill="#f2f2f2"/>
  <path id="Path_243" data-name="Path 243" d="M247.249,289.913c-.549.657-1.323,1.4-1.289,1.016a3.219,3.219,0,0,0-.78-1.563,2.311,2.311,0,0,1,1.52.043A1.41,1.41,0,0,1,247.249,289.913Z" transform="translate(-217.298 -243.786)" opacity="0.1"/>
  <path id="Path_244" data-name="Path 244" d="M247.858,289.041c-.547.654-1.323,1.4-1.289,1.026s-.406-.976-.73-1.344a2.258,2.258,0,0,1,1.47-.179A1.4,1.4,0,0,1,247.858,289.041Z" transform="translate(-217.824 -243.165)" fill="#f2f2f2"/>
  <circle id="Ellipse_51" data-name="Ellipse 51" cx="0.335" cy="0.335" r="0.335" transform="translate(28.327 48.687)" fill="#192534"/>
  <circle id="Ellipse_52" data-name="Ellipse 52" cx="0.335" cy="0.335" r="0.335" transform="translate(30.866 57.728)" fill="#192534"/>
  <circle id="Ellipse_53" data-name="Ellipse 53" cx="0.335" cy="0.335" r="0.335" transform="translate(33.742 66.88)" fill="#192534"/>
  <circle id="Ellipse_54" data-name="Ellipse 54" cx="0.335" cy="0.335" r="0.335" transform="translate(33.825 76.843)" fill="#192534"/>
  <circle id="Ellipse_55" data-name="Ellipse 55" cx="0.335" cy="0.335" r="0.335" transform="translate(29.807 52.955)" fill="#192534"/>
  <circle id="Ellipse_56" data-name="Ellipse 56" cx="0.335" cy="0.335" r="0.335" transform="translate(32.067 62.248)" fill="#192534"/>
  <circle id="Ellipse_57" data-name="Ellipse 57" cx="0.335" cy="0.335" r="0.335" transform="translate(34.272 71.374)" fill="#192534"/>
  <circle id="Ellipse_58" data-name="Ellipse 58" cx="0.335" cy="0.335" r="0.335" transform="translate(33.768 77.959)" fill="#192534"/>
  <path id="Path_245" data-name="Path 245" d="M188.363,281.428s.055-.5-.671.362a8.915,8.915,0,0,1-2.091,1.626s-3.1,2.177-3.266,3.183-1.171,5.358-.642,6.809,4.577,8.4,4.577,8.4a3.76,3.76,0,0,0-.813,2.736,18.356,18.356,0,0,1,.419,3.961c-.14.445.167,1.563-.307,1.953s-.978,1.061.5,1.955c0,0,.278.752.028.921s3.711,1.9,5.274.976,4.38-8.289,4.437-9.935A38.945,38.945,0,0,0,194.439,296c-.51-1.285-2.01-6.278-2.642-7.394S188.363,281.428,188.363,281.428Z" transform="translate(-166.593 -237.432)" opacity="0.1"/>
  <path id="Path_246" data-name="Path 246" d="M187.539,281.428s.057-.5-.669.362a8.908,8.908,0,0,1-2.094,1.626s-3.1,2.177-3.264,3.183-1.173,5.358-.642,6.809,4.579,8.394,4.579,8.394a3.76,3.76,0,0,0-.813,2.736,18.488,18.488,0,0,1,.419,3.961c-.138.445.167,1.563-.307,1.953s-.978,1.061.5,1.955c0,0,.278.752.026.921s3.711,1.9,5.285.976,4.382-8.289,4.437-9.935A39.546,39.546,0,0,0,193.632,296c-.5-1.285-2.01-6.278-2.652-7.394S187.539,281.428,187.539,281.428Z" transform="translate(-165.937 -237.432)" fill="#192534"/>
  <path id="Path_247" data-name="Path 247" d="M208.79,305.36s2.4,2.642,2.317,4.409A5.608,5.608,0,0,0,208.79,305.36Z" transform="translate(-188.304 -256.616)" opacity="0.1"/>
  <path id="Path_248" data-name="Path 248" d="M225.13,326.77c0,.085,1.626,6.112,1.535,6.866a14.2,14.2,0,0,0,.472,2.986l.752-.2s-.585-3.1-.7-4.242A36.109,36.109,0,0,0,225.13,326.77Z" transform="translate(-201.323 -273.674)" opacity="0.1"/>
  <path id="Path_249" data-name="Path 249" d="M216.724,411.35c-.057.083-3.823,4.354-2.762,4.661S216.724,411.35,216.724,411.35Z" transform="translate(-192.275 -341.063)" opacity="0.1"/>
  <path id="Path_250" data-name="Path 250" d="M206.429,406c-.083.057-1.506,3.071-1.675,2.262s1.22,2.2,1.451-.028Z" transform="translate(-185.078 -336.801)" opacity="0.1"/>
  <path id="Path_251" data-name="Path 251" d="M248.369,285.964s1.557-.951,3.51,1.488c0,0,1.423.813,1.841,1s.892,5.386.892,5.386a8.335,8.335,0,0,1,.671,3.516c-.25,1.28.726,5.691.726,5.691s1.626,7.927,1.563,8.148a7.977,7.977,0,0,1-1.626-3.823,24.144,24.144,0,0,0-1.535-5.776c-.2-.252-1.535-7.423-1.535-7.423a26.49,26.49,0,0,0-1.787-4.047c-.7-1-1.561-2.9-1.925-3.238a3.676,3.676,0,0,0-.866-.557Z" transform="translate(-219.784 -241.017)" opacity="0.1"/>
  <path id="Path_252" data-name="Path 252" d="M248.341,285.966s1.744-.947,3.7,1.48c0,0,1.423.813,1.841,1s.894,5.386.894,5.386a8.311,8.311,0,0,1,.669,3.516c-.252,1.281.726,5.691.726,5.691s1.626,7.927,1.563,8.148a7.977,7.977,0,0,1-1.626-3.823,24.142,24.142,0,0,0-1.535-5.776c-.2-.252-1.537-7.423-1.537-7.423a26.631,26.631,0,0,0-1.785-4.047c-.7-1-1.563-2.9-1.927-3.238a3.456,3.456,0,0,0-1.033-.557Z" transform="translate(-219.776 -241.019)" fill="#192534"/>
  <path id="Path_253" data-name="Path 253" d="M286.23,367.005s3.321-2.175,4.925-1.1,4.228,2.6,1.646,3.7a16.17,16.17,0,0,1-6.152.894Z" transform="translate(-250.004 -304.617)" fill="#a0616a"/>
  <path id="Path_254" data-name="Path 254" d="M262.345,467.444c-.5,1.063-.9,6.4-1.181,8.087-.4-.679-.876-1.492-1.039-1.746a22.846,22.846,0,0,1-.976-2.488,16.718,16.718,0,0,0,1.189-3.77c0-.984,1.591-2.217,1.591-2.217A1.846,1.846,0,0,1,262.345,467.444Z" transform="translate(-228.428 -384.056)" opacity="0.1"/>
  <path id="Path_255" data-name="Path 255" d="M235.733,231.314a1.255,1.255,0,0,1-.248.1,1.546,1.546,0,0,1-1.126-.37c-.35-.211-.829-.368-1.13-.093-.394.356-.11,1.12-.514,1.465-.258.219-.665.144-.951.325a1.356,1.356,0,0,0-.443.913c-.073.341-.215.726-.549.825s-.64-.118-.97-.106a.3.3,0,0,1-.2-.039.218.218,0,0,1-.033-.152,3.23,3.23,0,0,0-.106-1.22,1.155,1.155,0,0,0-.85-.795c-.589-.091-1.083.423-1.423.907a14.975,14.975,0,0,0-.99,1.593c-.014.028-.03.067-.049.112a5.108,5.108,0,1,1,9.583-3.47Z" transform="translate(-201.79 -194.674)" opacity="0.1"/>
  <path id="Path_256" data-name="Path 256" d="M222.518,221.636c.346-.484.839-1,1.423-.907a1.159,1.159,0,0,1,.85.795,3.23,3.23,0,0,1,.106,1.22.2.2,0,0,0,.035.152c.045.049.124.041.191.039.327-.012.654.2.97.106s.476-.486.549-.827a1.326,1.326,0,0,1,.443-.911c.295-.185.693-.106.951-.325.407-.346.118-1.11.512-1.467.3-.272.785-.116,1.132.1a1.543,1.543,0,0,0,1.126.37,3.914,3.914,0,0,0,.382-.163c.62-.236,1.423.165,1.935-.26a1.492,1.492,0,0,0,.386-.669,4.267,4.267,0,0,0,.283-1.067,1.423,1.423,0,0,0-.285-1.039c-.331-.392-.892-.49-1.317-.778a3.252,3.252,0,0,1-.841-.992,3.687,3.687,0,0,0-.813-1.016,1.189,1.189,0,0,0-1.22-.193,1.388,1.388,0,0,1-.406.191.813.813,0,0,1-.443-.122,8.569,8.569,0,0,0-4.734-.36,6.179,6.179,0,0,0-1.864.451,2.236,2.236,0,0,0-1.258,1.378c-.13.492-.03,1.016-.187,1.51-.106.329-.323.61-.447.933-.339.882.067,1.852.24,2.783a12.92,12.92,0,0,0,.524,3.075c.085.189.179.52.392.394.159-.091.311-.628.406-.795a15.305,15.305,0,0,1,.98-1.6Z" transform="translate(-197.112 -183.306)" fill="#192534"/>
  <path id="Path_257" data-name="Path 257" d="M184.834,315.755l-.754,2.148s1.787,6.642,2.624,8.037,2.065,3.183,2.065,3.183a7.65,7.65,0,0,0,4.472.557c2.4-.474,9.4-1.73,9.4-1.73a.932.932,0,0,0,.894-.335c.307-.447,1.9-.669,1.9-.669s1.841-2.679-.419-3.8c0,0-.278.61-1.478.2s-1.563.333-1.563.333a12.661,12.661,0,0,1-3.049.252,34.187,34.187,0,0,1-4.065-.419.358.358,0,0,0-.5.028,3.076,3.076,0,0,1-.892-.5c-.224-.25-.53.278-.53.278s-.39-.224-.278-.5-.364-1.339-.364-1.339a2.741,2.741,0,0,1-.083-1.256,8.256,8.256,0,0,0-.7-2.567,3.5,3.5,0,0,1,.112-1.006c.14-.5-1.061-1.506-1.061-1.506s-1.171-5.691-3.659-3.823A4.869,4.869,0,0,0,184.834,315.755Z" transform="translate(-168.617 -261.068)" opacity="0.1"/>
  <path id="Path_258" data-name="Path 258" d="M184.052,315.755,183.3,317.9s1.785,6.642,2.622,8.037,2.065,3.183,2.065,3.183a7.656,7.656,0,0,0,4.472.557c2.4-.474,9.4-1.73,9.4-1.73a.929.929,0,0,0,.892-.335c.307-.447,1.9-.669,1.9-.669s1.841-2.679-.419-3.8c0,0-.278.61-1.48.2s-1.563.333-1.563.333a12.661,12.661,0,0,1-3.049.252,34.649,34.649,0,0,1-4.075-.419.356.356,0,0,0-.5.028,3.077,3.077,0,0,1-.892-.5c-.224-.25-.53.278-.53.278s-.39-.224-.278-.5-.364-1.339-.364-1.339a2.712,2.712,0,0,1-.083-1.256,8.256,8.256,0,0,0-.7-2.567,3.5,3.5,0,0,1,.112-1.006c.138-.5-1.061-1.506-1.061-1.506s-1.173-5.691-3.659-3.823A4.853,4.853,0,0,0,184.052,315.755Z" transform="translate(-167.995 -261.068)" fill="#192534"/>
  <path id="Path_259" data-name="Path 259" d="M274.377,378.81c-.028.2-.642.978-.419,1.116s.585.057.25.5-.307,1.118-.083,1.033a2.667,2.667,0,0,0,.585-1.478A4.419,4.419,0,0,0,274.377,378.81Z" transform="translate(-240.188 -315.137)" opacity="0.1"/>
  <path id="Path_260" data-name="Path 260" d="M227.981,376.61s-.169,1.953-1.535,2.512S227.981,376.61,227.981,376.61Z" transform="translate(-202.081 -313.384)" opacity="0.1"/>
  <path id="Path_261" data-name="Path 261" d="M216.2,373.32c-.083.028-1.953,1.033-1.116,1.626S216.2,373.32,216.2,373.32Z" transform="translate(-193.149 -310.763)" opacity="0.1"/>
  <path id="Path_262" data-name="Path 262" d="M213.02,366.45s-2.734.559-1.813,1.033S213.02,366.45,213.02,366.45Z" transform="translate(-190.079 -305.289)" opacity="0.1"/>
  <g id="Group_10" data-name="Group 10" transform="translate(22.73 34.1)" opacity="0.1">
    <path id="Path_263" data-name="Path 263" d="M224.788,240.4a1.161,1.161,0,0,0-.85-.8c-.589-.089-1.083.425-1.423.909a15.306,15.306,0,0,0-.99,1.593c-.089.167-.242.7-.407.795-.2.124-.307-.2-.392-.394a12.954,12.954,0,0,1-.524-3.077,17.521,17.521,0,0,1-.36-1.795,8.608,8.608,0,0,0,.36,2.236,12.92,12.92,0,0,0,.524,3.075c.085.189.179.52.392.394.159-.091.311-.626.407-.793a14.89,14.89,0,0,1,.984-1.585c.346-.486.839-1,1.423-.909a1.159,1.159,0,0,1,.85.795,2.205,2.205,0,0,1,.112.628A2.884,2.884,0,0,0,224.788,240.4Z" transform="translate(-219.833 -236.752)"/>
    <path id="Path_264" data-name="Path 264" d="M253.33,234.3a1.5,1.5,0,0,1-.386.671c-.51.425-1.315.024-1.935.26-.13.049-.248.126-.382.163a1.557,1.557,0,0,1-1.126-.372c-.35-.211-.829-.368-1.132-.094-.394.358-.108,1.122-.512,1.467-.258.217-.665.144-.951.323a1.356,1.356,0,0,0-.443.913c-.073.339-.215.728-.549.827s-.642-.12-.97-.108c-.067,0-.146.012-.191-.039a.12.12,0,0,1-.024-.041c0,.112,0,.224-.01.335a.2.2,0,0,0,.035.152c.045.049.124.041.191.039.327-.012.654.2.97.108s.476-.488.549-.827a1.335,1.335,0,0,1,.443-.913c.295-.185.693-.106.951-.325.406-.343.118-1.11.512-1.465.3-.274.785-.118,1.132.094a1.543,1.543,0,0,0,1.126.37,3.9,3.9,0,0,0,.382-.161c.62-.238,1.423.165,1.935-.262a1.482,1.482,0,0,0,.386-.669,4.268,4.268,0,0,0,.283-1.067,1.924,1.924,0,0,0,0-.374A4.6,4.6,0,0,1,253.33,234.3Z" transform="translate(-239.658 -233.31)"/>
  </g>
</svg>
