<svg xmlns="http://www.w3.org/2000/svg" width="200" height="176.852" viewBox="0 0 200 176.852">
  <g id="Group_9" data-name="Group 9" transform="translate(0 0)">
    <path id="Path_180" data-name="Path 180" d="M738.191,654.485l-.266-.1c-.059-.022-5.883-2.254-8.611-7.313s-1.393-11.153-1.379-11.214l.063-.277.266.1c.059.022,5.883,2.254,8.611,7.314s1.393,11.153,1.379,11.213Zm-8.441-7.649c2.307,4.278,6.909,6.471,8.076,6.972.222-1.25.917-6.3-1.388-10.578s-6.909-6.47-8.076-6.972C728.141,637.508,727.446,642.562,729.75,646.836Z" transform="translate(-547.051 -477.868)" fill="#3f3d56"/>
    <path id="Path_181" data-name="Path 181" d="M709.7,668.479c4.9,2.95,6.792,8.81,6.792,8.81s-6.062,1.077-10.965-1.873-6.792-8.81-6.792-8.81S704.795,665.529,709.7,668.479Z" transform="translate(-525.35 -501.051)" fill="#ffeb00"/>
    <path id="Path_182" data-name="Path 182" d="M423.29,339.984a3.107,3.107,0,0,1,4.581-.714,2.954,2.954,0,0,1,.3.287l12.211-1.778.68-9.182a2.663,2.663,0,1,1,5.312.392c0,.016,0,.033,0,.049l-1.19,12.885-.006.029a2.413,2.413,0,0,1-2.331,1.692l-14.363-.248a2.9,2.9,0,0,1-.18.246,3.107,3.107,0,0,1-4.632.19q-.093-.095-.176-.2A3.117,3.117,0,0,1,423.29,339.984Z" transform="translate(-317.882 -245.204)" fill="#ffb7b7"/>
    <path id="Path_183" data-name="Path 183" d="M508.433,656.775H504.95l-1.657-13.433h5.14Z" transform="translate(-378.406 -483.703)" fill="#ffb7b7"/>
    <path id="Path_184" data-name="Path 184" d="M493.559,697.409h-11.23v-.142A4.371,4.371,0,0,1,486.7,692.9h6.859Z" transform="translate(-362.644 -520.961)" fill="#2f2e41"/>
    <path id="Path_185" data-name="Path 185" d="M594.2,646.229l-3.3,1.124L585,635.174l4.865-1.659Z" transform="translate(-439.839 -476.315)" fill="#ffb7b7"/>
    <path id="Path_186" data-name="Path 186" d="M596.806,683.532l-10.629,3.625-.046-.134a4.371,4.371,0,0,1,2.726-5.548h0l6.492-2.214Z" transform="translate(-440.512 -510.71)" fill="#2f2e41"/>
    <path id="Path_187" data-name="Path 187" d="M504.95,221.737s-3.466-1.145-5.695,3.434a88.582,88.582,0,0,1-5.695,9.616l1.981.458s.5-3.205,1.733-3.663l-.5,4.121s14.856,4.808,21.542-.458l-.248-1.6a1.485,1.485,0,0,1,.99,1.6l.743-.687a12.546,12.546,0,0,0-2.971-3.205c-1.463-1.2-1.965-3.49-2.138-4.92a5.732,5.732,0,0,0-1.482-3.242C511.734,221.605,509.036,219.918,504.95,221.737Z" transform="translate(-371.089 -166.123)" fill="#2f2e41"/>
    <circle id="Ellipse_38" data-name="Ellipse 38" cx="6.331" cy="6.331" r="6.331" transform="translate(128.808 58.951)" fill="#ffb7b7"/>
    <path id="Path_188" data-name="Path 188" d="M498.964,308.45l-1.151-.384s-2.3.959-2.3,2.686-.384,8.634-.384,8.634l5.18.576Z" transform="translate(-372.266 -231.623)" fill="#cbcbcb"/>
    <path id="Path_189" data-name="Path 189" d="M583.613,360.171a2.994,2.994,0,0,1-.068-3.907L580.313,329.2a2.412,2.412,0,1,1,4.818-.248c0,.009,0,.018,0,.026l2.891,27.092a2.914,2.914,0,0,1,.289.338,3.013,3.013,0,0,1-.676,4.208q-.05.036-.1.07h0a3.016,3.016,0,0,1-2.548.368A2.98,2.98,0,0,1,583.613,360.171Z" transform="translate(-436.312 -245.606)" fill="#ffb7b7"/>
    <path id="Path_190" data-name="Path 190" d="M581.695,317.642l5.18-.576s-.384-6.907-.384-8.634-2.3-2.686-2.3-2.686l-1.151.384Z" transform="translate(-437.354 -229.879)" fill="#cbcbcb"/>
    <path id="Path_191" data-name="Path 191" d="M499.15,392.294a41.4,41.4,0,0,0-4.413,17.853c0,9.785-.384,54.68-.384,54.68s5.756,2.686,9.209-.576l3.07-49.691,12.087,48.732s5.756,1.151,8.442-.767l-5.18-33.959s-2.11-31.848-7.866-34.151S499.15,392.294,499.15,392.294Z" transform="translate(-371.685 -294.948)" fill="#2f2e41"/>
    <path id="Path_192" data-name="Path 192" d="M516.347,240.4a17.338,17.338,0,0,0,5.256-5.713s4.113,4.57,6.627,4.8.229-5.484.229-5.484l-4.57-1.143-4.342.457-3.428,2.285Z" transform="translate(-388.049 -175.078)" fill="#2f2e41"/>
    <path id="Path_193" data-name="Path 193" d="M521.875,301.076s.183-.1-10.743.3l-4.573,1.259-.608.167s.576,11.511,2.11,13.622,1.151,3.262.767,3.453-1.343-.192-.767.767,1.343.384.576.959-1.151,2.686-1.151,2.686l16.883,2.3s.576-7.483,2.11-11.32A49.44,49.44,0,0,0,528.4,309.9l-1.151-7.674Z" transform="translate(-380.405 -226.359)" fill="#cbcbcb"/>
    <path id="Path_194" data-name="Path 194" d="M173.8,41.991h-.971v-26.6A15.394,15.394,0,0,0,157.434,0h-56.35A15.394,15.394,0,0,0,85.691,15.394V161.308A15.394,15.394,0,0,0,101.084,176.7h56.35a15.394,15.394,0,0,0,15.394-15.394h0V60.923h.971Z" transform="translate(-64.428 0)" fill="#3f3d56"/>
    <path id="Path_195" data-name="Path 195" d="M182.424,27.639v145.7a11.486,11.486,0,0,1-11.476,11.5H114.307a11.488,11.488,0,0,1-11.5-11.48V27.639a11.488,11.488,0,0,1,11.48-11.5h6.885a5.461,5.461,0,0,0,5.057,7.524h32.283a5.461,5.461,0,0,0,5.057-7.524h7.355a11.486,11.486,0,0,1,11.5,11.476v.021Z" transform="translate(-77.3 -12.137)" fill="#fff"/>
    <path id="Path_196" data-name="Path 196" d="M182.424,49.195V44.232h-7.511V16.852a11.46,11.46,0,0,0-3.985-.71h-.978V44.232H143.9V23.666h-4.963V44.232H117.1V16.143h-2.789a11.387,11.387,0,0,0-2.174.206V44.232h-9.323v4.963h9.323V60.674l-9.322,5.382v5.732l9.322-5.382v34.154h-9.323v4.963h9.323V154.9h-9.323v4.963h9.323v24.764a11.39,11.39,0,0,0,2.174.206H117.1v-24.97h21.836v24.97H143.9v-24.97H169.95v24.97h.978a11.461,11.461,0,0,0,3.985-.71v-24.26h7.511V154.9h-7.511V133.314h7.444v-4.963h-7.444V105.522h7.511v-4.963h-7.511V70.286h7.511V65.324h-7.511V49.195Zm-50.407,0h0L117.1,57.81h0V49.195ZM117.1,63.54h0l21.836-12.608v49.628H117.1Zm0,91.362v-49.38h21.836V154.9Zm52.854,0H143.9V133.314H169.95Zm0-26.551H143.9V105.522H169.95Zm0-27.792H143.9V70.286H169.95Zm0-35.236H143.9V49.195H169.95Z" transform="translate(-77.3 -12.137)" fill="#cfd9ca"/>
    <path id="Path_197" data-name="Path 197" d="M267.453,128.249c0,15.76-28.536,50.868-28.536,50.868s-28.536-35.108-28.536-50.868a28.536,28.536,0,1,1,57.072,0Z" transform="translate(-158.177 -74.97)" fill="#ffeb00"/>
    <path id="Path_198" data-name="Path 198" d="M291.129,158.586a16.873,16.873,0,1,1-16.873-16.873h0a16.866,16.866,0,0,1,16.873,16.858Z" transform="translate(-193.516 -106.548)" fill="#fff"/>
    <circle id="Ellipse_39" data-name="Ellipse 39" cx="6.286" cy="6.286" r="6.286" transform="translate(74.395 46.126)" fill="#46c404"/>
    <path id="Path_199" data-name="Path 199" d="M306.974,248.363a16.891,16.891,0,0,1-18.131,0,9.429,9.429,0,0,1,18.131,0Z" transform="translate(-217.169 -181.593)" fill="#46c404"/>
    <circle id="Ellipse_40" data-name="Ellipse 40" cx="7.692" cy="7.692" r="7.692" transform="translate(73.047 109.358)" fill="#46c404"/>
    <path id="Path_200" data-name="Path 200" d="M199.752,711.209H.248a.248.248,0,1,1,0-.5h199.5a.248.248,0,1,1,0,.5Z" transform="translate(0 -534.357)" fill="#cbcbcb"/>
  </g>
</svg>
