<svg id="Group_12" data-name="Group 12" xmlns="http://www.w3.org/2000/svg" width="200" height="139.84" viewBox="0 0 200 139.84">
  <path id="Path_265" data-name="Path 265" d="M894.211,532.737a2.111,2.111,0,0,1,.446-3.207l-1.674-7.314,3.652,1.366,1.03,6.736a2.123,2.123,0,0,1-3.453,2.419Z" transform="translate(-725.345 -435.624)" fill="#ffb8b8"/>
  <path id="Path_266" data-name="Path 266" d="M886.513,469.9l-3.21-6.207.434-15.629.206.435c.24.506,5.873,12.431,5.471,16.423l.644,3.648Z" transform="translate(-717.9 -378.589)" fill="#3f3d56"/>
  <path id="Path_267" data-name="Path 267" d="M721.305,561.121h2.574l1.224-9.929h-3.8Z" transform="translate(-554.785 -423.945)" fill="#ffb8b8"/>
  <path id="Path_268" data-name="Path 268" d="M885.3,737.69h5.07a3.231,3.231,0,0,1,3.231,3.23v.105h-8.3Z" transform="translate(-719.434 -601.354)" fill="#2f2e41"/>
  <path id="Path_269" data-name="Path 269" d="M611.134,553.856l2.48.69,3.84-9.238-3.661-1.018Z" transform="translate(-470.048 -418.636)" fill="#ffb8b8"/>
  <path id="Path_270" data-name="Path 270" d="M773.226,728.588l4.884,1.358h0a3.231,3.231,0,0,1,2.247,3.978l-.028.1-8-2.224Z" transform="translate(-632.548 -594.353)" fill="#2f2e41"/>
  <path id="Path_271" data-name="Path 271" d="M792.938,545.731l-5.2-37.2-11.221,36.987-8.823-3.013,12.645-49.527.083-.006,13.247-.921,9.571,50.671Z" transform="translate(-628.984 -412.425)" fill="#2f2e41"/>
  <path id="Path_272" data-name="Path 272" d="M828.168,414.4a19.71,19.71,0,0,0-11.338-1.47s-3.465,8.358,0,11.685l.945,8.367s8.819,5.249,11.758-.84l-.42-6.929s2.1-3.323.42-5.756A8.039,8.039,0,0,1,828.168,414.4Z" transform="translate(-665.588 -351.368)" fill="#c4c4c4"/>
  <path id="Path_273" data-name="Path 273" d="M868.555,456.524l.848-17.589L867,418.011l.11-.017c3.147-.474,4.156,4.947,4.2,5.178l5.477,30.968Z" transform="translate(-705.363 -355.441)" fill="#3f3d56"/>
  <path id="Path_274" data-name="Path 274" d="M795.206,451.564l-9.683-1.076,0-.106c.034-1.434.868-35.138,3.2-37.525s6.782-1.362,6.969-1.317l.094.023-.8,14.262Z" transform="translate(-642.693 -350.298)" fill="#3f3d56"/>
  <path id="Path_275" data-name="Path 275" d="M801.5,478.751a2.111,2.111,0,0,1-2.749-1.71l-7.363-1.443,2.732-2.782,6.573,1.8a2.123,2.123,0,0,1,.806,4.138Z" transform="translate(-647.205 -397.629)" fill="#ffb8b8"/>
  <path id="Path_276" data-name="Path 276" d="M767.722,433.661l-2.4-.516c-3.542,1.065-9.724-2.685-12.223-4.351-.47-.313-.623-.934-.453-1.845a5.381,5.381,0,0,1,1.978-3.212l8.8-6.978,2.221-.371.66,3.739-5.607,6.022,8.254,4.492Z" transform="translate(-617.355 -354.227)" fill="#3f3d56"/>
  <path id="Path_277" data-name="Path 277" d="M814.061,358.15V353.3a7.734,7.734,0,0,1,15.468,0v4.848a1.04,1.04,0,0,1-1.039,1.039H815.1A1.04,1.04,0,0,1,814.061,358.15Z" transform="translate(-664.643 -299.757)" fill="#2f2e41"/>
  <circle id="Ellipse_59" data-name="Ellipse 59" cx="5.67" cy="5.67" r="5.67" transform="translate(151.171 48.044)" fill="#ffb8b8"/>
  <path id="Path_278" data-name="Path 278" d="M820.51,357.1a.577.577,0,0,1-.135-.46l.672-4.677a.578.578,0,0,1,.327-.443,11.706,11.706,0,0,1,10.333-.006.582.582,0,0,1,.33.47l.448,4.683a.577.577,0,0,1-.575.632h-1.137a.579.579,0,0,1-.523-.333l-.491-1.051a.346.346,0,0,0-.657.1l-.1.775a.578.578,0,0,1-.573.506h-7.486a.577.577,0,0,1-.436-.2Z" transform="translate(-669.495 -303.408)" fill="#2f2e41"/>
  <rect id="Rectangle_63" data-name="Rectangle 63" width="127.203" height="79.211" transform="translate(0 9.319)" fill="#b4b4b4"/>
  <rect id="Rectangle_64" data-name="Rectangle 64" width="23.297" height="15.143" transform="translate(8.53 24.579)" fill="#fff"/>
  <rect id="Rectangle_65" data-name="Rectangle 65" width="23.297" height="15.143" transform="translate(37.479 24.579)" fill="#fff"/>
  <rect id="Rectangle_66" data-name="Rectangle 66" width="23.297" height="15.143" transform="translate(66.427 24.579)" fill="#fff"/>
  <rect id="Rectangle_67" data-name="Rectangle 67" width="23.297" height="15.143" transform="translate(95.376 24.579)" fill="#fff"/>
  <rect id="Rectangle_68" data-name="Rectangle 68" width="23.297" height="15.143" transform="translate(8.53 46.012)" fill="#fff"/>
  <rect id="Rectangle_69" data-name="Rectangle 69" width="23.297" height="15.143" transform="translate(37.479 46.012)" fill="#fff"/>
  <rect id="Rectangle_70" data-name="Rectangle 70" width="23.297" height="15.143" transform="translate(66.427 46.012)" fill="#fff"/>
  <rect id="Rectangle_71" data-name="Rectangle 71" width="23.297" height="15.143" transform="translate(95.376 46.012)" fill="#fff"/>
  <rect id="Rectangle_72" data-name="Rectangle 72" width="23.297" height="15.143" transform="translate(8.53 67.446)" fill="#fff"/>
  <rect id="Rectangle_73" data-name="Rectangle 73" width="23.297" height="15.143" transform="translate(37.479 67.446)" fill="#fff"/>
  <rect id="Rectangle_74" data-name="Rectangle 74" width="23.297" height="15.143" transform="translate(66.427 67.446)" fill="#fff"/>
  <rect id="Rectangle_75" data-name="Rectangle 75" width="23.297" height="15.143" transform="translate(95.376 67.446)" fill="#fff"/>
  <circle id="Ellipse_60" data-name="Ellipse 60" cx="3.495" cy="3.495" r="3.495" transform="translate(29.821 11.649)" fill="#fff"/>
  <circle id="Ellipse_61" data-name="Ellipse 61" cx="3.495" cy="3.495" r="3.495" transform="translate(87.598 11.649)" fill="#fff"/>
  <rect id="Rectangle_76" data-name="Rectangle 76" width="2.796" height="16.075" transform="translate(31.917)" fill="#4e4e4e"/>
  <rect id="Rectangle_77" data-name="Rectangle 77" width="2.796" height="16.075" transform="translate(89.695)" fill="#4e4e4e"/>
  <path id="Path_279" data-name="Path 279" d="M618.24,268.872a5.254,5.254,0,1,1-.814-2.814A5.254,5.254,0,0,1,618.24,268.872Z" transform="translate(-505.947 -236.722)" fill="#46c404"/>
  <path id="Path_280" data-name="Path 280" d="M625.308,271.59l-5.186,5.185c-.326-.5-2.142-2.85-2.142-2.85a7.354,7.354,0,0,1,.743-.656l1.506,2.008,4.471-4.471A5.239,5.239,0,0,1,625.308,271.59Z" transform="translate(-513.829 -242.254)" fill="#fff"/>
  <path id="Path_281" data-name="Path 281" d="M367.449,361.714a5.254,5.254,0,1,1-.814-2.814A5.254,5.254,0,0,1,367.449,361.714Z" transform="translate(-313.053 -308.131)" fill="#46c404"/>
  <path id="Path_282" data-name="Path 282" d="M374.517,364.432l-5.186,5.185c-.326-.5-2.142-2.85-2.142-2.85a7.351,7.351,0,0,1,.743-.656l1.506,2.008,4.471-4.471A5.249,5.249,0,0,1,374.517,364.432Z" transform="translate(-320.936 -313.663)" fill="#fff"/>
  <path id="Path_283" data-name="Path 283" d="M242.053,361.714a5.254,5.254,0,1,1-.814-2.814A5.254,5.254,0,0,1,242.053,361.714Z" transform="translate(-216.606 -308.131)" fill="#46c404"/>
  <path id="Path_284" data-name="Path 284" d="M249.122,364.432l-5.186,5.185c-.326-.5-2.142-2.85-2.142-2.85a7.346,7.346,0,0,1,.743-.656l1.506,2.008,4.471-4.471a5.246,5.246,0,0,1,.607.784Z" transform="translate(-224.489 -313.663)" fill="#fff"/>
  <path id="Path_285" data-name="Path 285" d="M738.353,751.332H650.4a.231.231,0,0,1,0-.462h87.957a.231.231,0,0,1,0,.462Z" transform="translate(-538.584 -611.491)" fill="#3f3d56"/>
</svg>
