<svg xmlns="http://www.w3.org/2000/svg" width="200" height="162.932" viewBox="0 0 200 162.932">
  <g id="Group_13" data-name="Group 13" transform="translate(0 0)">
    <path id="Path_461" data-name="Path 461" d="M454.389,677.57a6.131,6.131,0,0,0,5.828,1.471c2.6-.739,4.371-3.089,5.94-5.295l4.641-6.524-3.912.717c-2.813.516-5.7,1.057-8.145,2.533s-4.412,4.111-4.257,6.966" transform="translate(-395.766 -524.03)" fill="#ffeb00"/>
    <path id="Path_462" data-name="Path 462" d="M441.591,703.065a31.7,31.7,0,0,1,2.587-6.842,11.484,11.484,0,0,1,4.485-4.587,10.015,10.015,0,0,1,3.3-1.073c.3-.042.35.426.05.468a9.521,9.521,0,0,0-5.3,2.6,15.244,15.244,0,0,0-3.429,5.667c-.47,1.257-.85,2.545-1.228,3.833a.243.243,0,0,1-.269.2.237.237,0,0,1-.2-.269Z" transform="translate(-386.604 -540.736)" fill="#f2f2f2"/>
    <path id="Path_286" data-name="Path 286" d="M701.272,402.833a3.137,3.137,0,0,1,3.866,2.862l10.731,3.017L711.49,412.5l-9.519-3.446a3.154,3.154,0,0,1-.7-6.225Z" transform="translate(-570.751 -334.708)" fill="#ffb7b7"/>
    <path id="Path_287" data-name="Path 287" d="M544.728,530.9H541.6l-1.488-12.065h4.617Z" transform="translate(-386.631 -371.4)" fill="#ffb7b7"/>
    <path id="Path_288" data-name="Path 288" d="M781.848,725.068H771.762v-.128a3.926,3.926,0,0,1,3.925-3.926h6.161Z" transform="translate(-622.953 -562.535)" fill="#2f2e41"/>
    <path id="Path_289" data-name="Path 289" d="M609.23,530.9H606.1l-1.488-12.065h4.617Z" transform="translate(-432.804 -371.4)" fill="#ffb7b7"/>
    <path id="Path_290" data-name="Path 290" d="M846.35,725.068H836.264v-.128a3.926,3.926,0,0,1,3.926-3.926h6.161Z" transform="translate(-669.126 -562.535)" fill="#2f2e41"/>
    <path id="Path_291" data-name="Path 291" d="M535.756,313.488,531.148,345.4,532.3,379.03l6.919.551,2.164-30.156,5.508-16.815,3.238,23.97.133,22.451,7.145.551,2.492-47.2-1.833-20.527Z" transform="translate(-380.214 -223.236)" fill="#2f2e41"/>
    <circle id="Ellipse_62" data-name="Ellipse 62" cx="7.289" cy="7.289" r="7.289" transform="translate(161.579 32.942)" fill="#ffb7b7"/>
    <path id="Path_292" data-name="Path 292" d="M806.27,340.986l-8.047,40.54s13.548,3.889,19.484.3,3.276-14.672,3.276-14.672L819.9,348.3l-2.009-4.768-1.7-3.936Z" transform="translate(-641.895 -289.5)" fill="#cbcbcb"/>
    <path id="Path_293" data-name="Path 293" d="M785.037,371.291l2.78-29.564-2.223,1.623-7.773,2.524-.532,20.814-5.437,27.371s3.887,7.584,8.7-4.963Z" transform="translate(-623.017 -291.028)" fill="#2f2e41"/>
    <path id="Path_294" data-name="Path 294" d="M502.578,196.12l-3.741-3.113-8.408,18.264-9.382-2.055-.443,5.541,13.593,5.38,9.263-12.9Z" transform="translate(-344.033 -138.161)" fill="#2f2e41"/>
    <path id="Path_295" data-name="Path 295" d="M609.144,199.066l1.048-24.061,3.856,2.986,6.886,1.919-1.01,19.156,1.453,29.724-7.219,2.286-2.026-18.756Z" transform="translate(-436.047 -125.275)" fill="#2f2e41"/>
    <path id="Path_296" data-name="Path 296" d="M858.731,463.429a3.137,3.137,0,0,1,4.174-2.39l7.075-8.615,1.713,5.534-6.981,7.332a3.154,3.154,0,0,1-5.981-1.861Z" transform="translate(-685.171 -370.27)" fill="#ffb7b7"/>
    <path id="Path_297" data-name="Path 297" d="M630.5,194.937l4.61-2.671,11.6,22.907-11.31,15.7-6.451-5.158,7.833-10.214-7.139-10.971Z" transform="translate(-450.226 -137.631)" fill="#2f2e41"/>
    <path id="Path_298" data-name="Path 298" d="M829.354,274.187l.353-.711-1.778-.883s-1.962-3.192-5.511-2.295-5.146,1.434-5.146,1.434l-1.774.892.89.886-1.6.537,1.067.53-1.241.714.668,3.658s1.11-2.774,3.244-1.714,6.037-.548,6.037-.548l3.391,6.562s.7-2.3,1.947-1.687C829.9,281.561,833.09,276.487,829.354,274.187Z" transform="translate(-653.631 -239.783)" fill="#2f2e41"/>
    <path id="Path_299" data-name="Path 299" d="M380.418,322.019h-.047L353.64,333.434l-36.575,15.618a1.18,1.18,0,0,1-.9,0L278.428,333.4l-27.388-11.363-.042-.019h-.047a1.632,1.632,0,0,0-1.63,1.63v70.788a1.632,1.632,0,0,0,1.63,1.63H380.418a1.632,1.632,0,0,0,1.63-1.63V323.649A1.632,1.632,0,0,0,380.418,322.019Z" transform="translate(-248.971 -276.921)" fill="#fff"/>
    <path id="Path_300" data-name="Path 300" d="M383.174,208.879a.232.232,0,0,1-.133-.042l-64.4-44.849a1.168,1.168,0,0,0-1.334,0l-63.934,44.846a.233.233,0,0,1-.267-.381l63.934-44.846a1.635,1.635,0,0,1,1.868,0l64.4,44.849a.233.233,0,0,1-.133.424Z" transform="translate(-251.611 -163.315)" fill="#3f3d56"/>
    <path id="Path_301" data-name="Path 301" d="M19.063,52.034,80.074,6.817l61.474,48.434L83.217,89.83,51.549,82.611Z" transform="translate(-13.646 -4.88)" fill="#4e4e4e"/>
    <path id="Path_302" data-name="Path 302" d="M311.4,530.327H281.262a1.408,1.408,0,1,1,0-2.816H311.4a1.408,1.408,0,1,1,0,2.816Z" transform="translate(-270.827 -424.019)" fill="#ffeb00"/>
    <path id="Path_303" data-name="Path 303" d="M292.076,509.022H281.262a1.408,1.408,0,0,1,0-2.816h10.818a1.408,1.408,0,0,1,0,2.816Z" transform="translate(-270.827 -408.768)" fill="#ffeb00"/>
    <path id="Path_304" data-name="Path 304" d="M388.407,251.007a1.761,1.761,0,0,1-.668-.131l-37.627-15.613v-48.87a1.632,1.632,0,0,1,1.63-1.63h72.185a1.632,1.632,0,0,1,1.63,1.63v48.9l-.071.03L389.1,250.868A1.774,1.774,0,0,1,388.407,251.007Z" transform="translate(-321.121 -178.668)" fill="#46c404"/>
    <path id="Path_305" data-name="Path 305" d="M379.189,322.019h-.047l-26.732,11.415-36.574,15.618a1.18,1.18,0,0,1-.9,0L277.2,333.4,249.81,322.038l-.042-.019h-.047a1.632,1.632,0,0,0-1.63,1.63v70.788a1.632,1.632,0,0,0,1.63,1.63H379.189a1.632,1.632,0,0,0,1.63-1.63V323.649A1.632,1.632,0,0,0,379.189,322.019Zm1.164,72.418a1.165,1.165,0,0,1-1.164,1.164H249.721a1.165,1.165,0,0,1-1.164-1.164V323.649a1.167,1.167,0,0,1,1.12-1.164L277.2,333.9l37.555,15.583a1.658,1.658,0,0,0,1.267-.007l36.391-15.541,26.825-11.454a1.168,1.168,0,0,1,1.118,1.164Z" transform="translate(-248.091 -276.921)" fill="#3f3d56"/>
    <path id="Path_306" data-name="Path 306" d="M395.045,239.664H369.431a1.863,1.863,0,1,1,0-3.726h25.614a1.863,1.863,0,1,1,0,3.726Z" transform="translate(-333.617 -215.301)" fill="#fff"/>
    <path id="Path_307" data-name="Path 307" d="M381.772,211.8H369.431a1.863,1.863,0,1,1,0-3.726h12.341a1.863,1.863,0,1,1,0,3.726Z" transform="translate(-333.617 -195.357)" fill="#fff"/>
    <path id="Path_308" data-name="Path 308" d="M447.038,305.219h-39.12a1.863,1.863,0,1,1,0-3.726h39.12a1.863,1.863,0,1,1,0,3.726Z" transform="translate(-361.168 -262.228)" fill="#fff"/>
    <path id="Path_309" data-name="Path 309" d="M447.038,335.538h-39.12a1.863,1.863,0,0,1,0-3.726h39.12a1.863,1.863,0,0,1,0,3.726Z" transform="translate(-361.168 -283.931)" fill="#fff"/>
    <path id="Path_310" data-name="Path 310" d="M761.928,734.883H687.193a.284.284,0,0,1,0-.568h74.735a.284.284,0,0,1,0,.568Z" transform="translate(-562.212 -572.057)" fill="#4e4e4e"/>
    <path id="Path_311" data-name="Path 311" d="M421.757,734.883H394.193a.284.284,0,0,1,0-.568h27.564a.284.284,0,0,1,0,.568Z" transform="translate(-352.472 -572.057)" fill="#4e4e4e"/>
    <path id="Path_461-2" data-name="Path 461" d="M424.985,657.765a6.13,6.13,0,0,0,5.17-3.066c1.325-2.36.922-5.273.478-7.943l-1.31-7.9-2.268,3.267c-1.631,2.349-3.293,4.766-3.989,7.54s-.229,6.026,1.894,7.941" transform="translate(-373.13 -503.725)" fill="#46c404"/>
    <path id="Path_462-2" data-name="Path 462" d="M434.553,695.372a31.7,31.7,0,0,1-2.99-6.675,11.483,11.483,0,0,1-.055-6.415,10.014,10.014,0,0,1,1.582-3.086c.183-.242.548.055.366.3a9.521,9.521,0,0,0-1.919,5.581,15.245,15.245,0,0,0,1.565,6.437c.553,1.223,1.192,2.4,1.833,3.584a.243.243,0,0,1-.052.329.237.237,0,0,1-.329-.052Z" transform="translate(-379.078 -532.536)" fill="#f2f2f2"/>
  </g>
</svg>
