<svg id="Group_8" data-name="Group 8" xmlns="http://www.w3.org/2000/svg" width="200" height="176.245" viewBox="0 0 200 176.245">
  <path id="Path_164" data-name="Path 164" d="M595.27,662.564a15.166,15.166,0,0,1-1.6-6c-.367-3.666-.131-9.846,3.074-18.465a37.238,37.238,0,0,0-1.475-29.637l.369-.214a32.708,32.708,0,0,1,3.086,8.742,38.138,38.138,0,0,1-1.58,21.257c-6.061,16.3-1.555,24.019-1.509,24.1Z" transform="translate(-494.915 -486.421)" fill="#3f3d56"/>
  <circle id="Ellipse_29" data-name="Ellipse 29" cx="2.769" cy="2.769" r="2.769" transform="translate(95.211 115.544)" fill="#ffeb00"/>
  <circle id="Ellipse_30" data-name="Ellipse 30" cx="2.769" cy="2.769" r="2.769" transform="translate(103.944 125.768)" fill="#3f3d56"/>
  <circle id="Ellipse_31" data-name="Ellipse 31" cx="2.769" cy="2.769" r="2.769" transform="translate(97.98 132.583)" fill="#ffeb00"/>
  <circle id="Ellipse_32" data-name="Ellipse 32" cx="2.769" cy="2.769" r="2.769" transform="translate(105.222 138.334)" fill="#ffeb00"/>
  <circle id="Ellipse_33" data-name="Ellipse 33" cx="2.769" cy="2.769" r="2.769" transform="translate(95.85 147.279)" fill="#3f3d56"/>
  <path id="Path_165" data-name="Path 165" d="M607.88,819.677s-2.769-6.815,5.538-11.927Z" transform="translate(-505.853 -643.432)" fill="#3f3d56"/>
  <path id="Path_166" data-name="Path 166" d="M552.833,836.616s-1.26-7.248-11.013-7.186Z" transform="translate(-454.212 -660.495)" fill="#3f3d56"/>
  <rect id="Rectangle_40" data-name="Rectangle 40" width="0.426" height="53.442" transform="translate(34.724 97.449)" fill="#3f3d56"/>
  <rect id="Rectangle_41" data-name="Rectangle 41" width="0.426" height="69.889" transform="translate(47.716 89.226)" fill="#3f3d56"/>
  <rect id="Rectangle_42" data-name="Rectangle 42" width="0.426" height="74.545" transform="translate(60.708 86.898)" fill="#3f3d56"/>
  <rect id="Rectangle_43" data-name="Rectangle 43" width="0.426" height="69.889" transform="translate(73.7 89.226)" fill="#3f3d56"/>
  <rect id="Rectangle_44" data-name="Rectangle 44" width="0.426" height="53.442" transform="translate(86.692 97.449)" fill="#3f3d56"/>
  <rect id="Rectangle_45" data-name="Rectangle 45" width="65.642" height="0.426" transform="translate(28.1 106.28)" fill="#3f3d56"/>
  <rect id="Rectangle_46" data-name="Rectangle 46" width="74.545" height="0.426" transform="translate(23.648 123.957)" fill="#3f3d56"/>
  <rect id="Rectangle_47" data-name="Rectangle 47" width="65.642" height="0.426" transform="translate(28.1 141.635)" fill="#3f3d56"/>
  <circle id="Ellipse_34" data-name="Ellipse 34" cx="37.272" cy="37.272" r="37.272" transform="translate(125.455 32.161)" fill="#46c404"/>
  <rect id="Rectangle_48" data-name="Rectangle 48" width="0.426" height="53.442" transform="translate(99.258 62.094)" fill="#3f3d56"/>
  <rect id="Rectangle_49" data-name="Rectangle 49" width="0.426" height="69.889" transform="translate(112.25 53.87)" fill="#3f3d56"/>
  <rect id="Rectangle_50" data-name="Rectangle 50" width="0.426" height="74.545" transform="translate(125.242 51.542)" fill="#3f3d56"/>
  <rect id="Rectangle_51" data-name="Rectangle 51" width="0.426" height="69.889" transform="translate(138.234 53.87)" fill="#3f3d56"/>
  <rect id="Rectangle_52" data-name="Rectangle 52" width="0.426" height="53.442" transform="translate(151.226 62.094)" fill="#3f3d56"/>
  <rect id="Rectangle_53" data-name="Rectangle 53" width="65.642" height="0.426" transform="translate(92.634 70.924)" fill="#3f3d56"/>
  <rect id="Rectangle_54" data-name="Rectangle 54" width="74.545" height="0.426" transform="translate(88.183 88.602)" fill="#3f3d56"/>
  <rect id="Rectangle_55" data-name="Rectangle 55" width="65.642" height="0.426" transform="translate(92.634 106.28)" fill="#3f3d56"/>
  <path id="Path_167" data-name="Path 167" d="M786.183,69.328h0c-10.253,0-18.565,9.224-18.565,20.6v14.457h4.446l2.574-5.356-.644,5.356h28.578l2.34-4.869-.585,4.869h3.218V93.036C807.546,79.943,797.981,69.328,786.183,69.328Z" transform="translate(-631.918 -62.283)" fill="#2f2e41"/>
  <path id="Path_168" data-name="Path 168" d="M805.571,187.041s5.794,13.52-1.932,16.224l7.726,25.5,13.134-.773,3.477-8.5-.773-12.748-1.159-8.5s-8.112,1.931-7.34-12.361Z" transform="translate(-660.267 -154.013)" fill="#ffb8b8"/>
  <path id="Path_169" data-name="Path 169" d="M670.758,265.515s-12.748-1.159-11.589,8.112,2.318,11.2,2.318,11.2l1.159,13.907-6.953,4.249h-6.567s-20.087,4.636-10.044,9.657,13.52-3.863,13.52-3.863,18.542,0,19.7-3.09S670.758,265.515,670.758,265.515Z" transform="translate(-528.544 -216.648)" fill="#ffb8b8"/>
  <path id="Path_170" data-name="Path 170" d="M914.277,243.957s11.975-4.249,12.748,5.022.773,10.044.773,10.044l2.318,13.134s4.635,11.589,4.635,15.066,3.477,14.293,3.477,14.293,4.636,15.066-.386,14.679-5.794-16.224-5.794-16.224l-10.43-20.86-3.09-12.748Z" transform="translate(-747.341 -198.954)" fill="#ffb8b8"/>
  <path id="Path_171" data-name="Path 171" d="M787.309,242.73h-3.09l-.386,16.224s-5.022,6.953,1.159,13.134l1.545,10.044,28.2-1.159,1.932-10.43s3.863-8.5-1.545-16.224L810.1,238.48h-2.7s6.263,23.092-6.953,23.564C789.627,262.431,787.309,242.73,787.309,242.73Z" transform="translate(-643.164 -195.408)" fill="#fff"/>
  <path id="Path_172" data-name="Path 172" d="M748.248,489.969a97,97,0,0,1-31.177,23.315c0-19.331.224-35.032.224-35.032s-1.64,16.592-3.723,36.593a96.361,96.361,0,0,1-37.6,7.587c-.23,0-.46,0-.69,0,10.628-38.188,26.131-81.957,26.559-83.164a.267.267,0,0,0,.009-.026l.935-3.118.4-1.327.417-1.391.567-1.891,25.109-.771.7,1.578,2.388,5.374a2.073,2.073,0,0,1,.586.275C737.466,440.934,743.164,463.578,748.248,489.969Z" transform="translate(-559.244 -346.72)" fill="#2f2e41"/>
  <path id="Path_173" data-name="Path 173" d="M826.428,416.225l-30.517,1.159s-1.393,10.43,0,10.43c.386,0,32.063,2.7,31.676-1.931S826.428,416.225,826.428,416.225Z" transform="translate(-653.698 -335.296)" fill="#ffeb00"/>
  <circle id="Ellipse_35" data-name="Ellipse 35" cx="10.854" cy="10.854" r="10.854" transform="translate(140.42 15.745)" fill="#ffb8b8"/>
  <path id="Path_174" data-name="Path 174" d="M802.81,81.489a9.736,9.736,0,0,0-7.682-3.92h-.364c-7.027,0-12.724,6.359-12.724,14.2h2.355l.38-2.895.557,2.895H799.3l1.17-2.449-.293,2.449h2.747q1.923,9.55-5.526,19.1h4.68l2.34-4.9-.585,4.9h8.922l1.755-11.265C814.507,91.172,809.606,84.018,802.81,81.489Z" transform="translate(-643.267 -68.768)" fill="#2f2e41"/>
  <circle id="Ellipse_36" data-name="Ellipse 36" cx="6.953" cy="6.953" r="6.953" transform="translate(155.154 0)" fill="#2f2e41"/>
  <circle id="Ellipse_37" data-name="Ellipse 37" cx="3.496" cy="3.496" r="3.496" transform="translate(107.814 85.293)" fill="#ffeb00"/>
  <path id="Path_175" data-name="Path 175" d="M241.013,303.2H164.8V272.44h63.392Z" transform="translate(-129.702 -214.414)" fill="#efefef"/>
  <path id="Path_176" data-name="Path 176" d="M337.4,314.712h-85.88V276.957h70.306l.059.144Zm-85.414-.466H336.7l-15.19-36.823H251.983Z" transform="translate(-225.738 -225.69)" fill="#3f3d56"/>
  <rect id="Rectangle_56" data-name="Rectangle 56" width="37.988" height="3.496" transform="translate(47.686 62.92)" fill="#3f3d56"/>
  <rect id="Rectangle_57" data-name="Rectangle 57" width="37.988" height="3.496" transform="translate(47.686 70.145)" fill="#3f3d56"/>
  <rect id="Rectangle_58" data-name="Rectangle 58" width="37.988" height="3.496" transform="translate(47.686 77.369)" fill="#3f3d56"/>
  <path id="Path_177" data-name="Path 177" d="M133.039,603.708a2.556,2.556,0,1,1,2.556-2.556,2.556,2.556,0,0,1-2.556,2.556Zm0-4.686a2.13,2.13,0,1,0,2.13,2.13,2.13,2.13,0,0,0-2.13-2.13Z" transform="translate(-130.483 -478.825)" fill="#2f2e41"/>
  <path id="Path_178" data-name="Path 178" d="M548.774,155.349h-4.2v-4.2h4.2Zm-3.881-.323h3.558v-3.558h-3.558Z" transform="translate(-456.376 -126.674)" fill="#3f3d56"/>
  <path id="Path_179" data-name="Path 179" d="M180.358,153.007l-2.868-3.075,3.075-2.868,2.868,3.075Zm-2.411-3.059,2.427,2.6,2.6-2.427-2.427-2.6Z" transform="translate(-167.478 -123.463)" fill="#2f2e41"/>
</svg>
