<svg id="Group_15" data-name="Group 15" xmlns="http://www.w3.org/2000/svg" width="200" height="125.708" viewBox="0 0 200 125.708">
  <path id="Path_1237" data-name="Path 1237" d="M1012.236,322.462h-.338v-9.253a5.355,5.355,0,0,0-5.355-5.355h-19.6a5.355,5.355,0,0,0-5.355,5.355v50.763a5.355,5.355,0,0,0,5.355,5.355h19.6a5.355,5.355,0,0,0,5.355-5.355V329.049h.338Z" transform="translate(-812.236 -270.833)" fill="#3f3d56"/>
  <path id="Path_1238" data-name="Path 1238" d="M1017.417,321.052v50.69a4,4,0,0,1-4,4h-19.7a4,4,0,0,1-4-4v-50.69a4,4,0,0,1,4-4h2.39a1.9,1.9,0,0,0,1.759,2.617H1009.1a1.9,1.9,0,0,0,1.759-2.617h2.559a4,4,0,0,1,4,4Z" transform="translate(-818.895 -278.361)" fill="#e3e3e3"/>
  <rect id="Rectangle_86" data-name="Rectangle 86" width="22.899" height="6.179" transform="translate(171.895 64.645)" fill="#46c404"/>
  <path id="Path_1239" data-name="Path 1239" d="M1024.318,458.4h-22.172a.546.546,0,0,1-.545-.545V452.4a.546.546,0,0,1,.545-.545h22.172a.546.546,0,0,1,.545.545v5.452A.546.546,0,0,1,1024.318,458.4Zm-22.172-6.179a.182.182,0,0,0-.182.182v5.452a.182.182,0,0,0,.182.182h22.172a.182.182,0,0,0,.182-.182V452.4a.182.182,0,0,0-.182-.182Z" transform="translate(-828.616 -388.663)" fill="#3f3d56"/>
  <rect id="Rectangle_87" data-name="Rectangle 87" width="2.908" height="0.363" transform="translate(174.439 68.098)" fill="#3f3d56"/>
  <rect id="Rectangle_88" data-name="Rectangle 88" width="2.908" height="0.363" transform="translate(178.437 68.098)" fill="#3f3d56"/>
  <rect id="Rectangle_89" data-name="Rectangle 89" width="2.908" height="0.363" transform="translate(182.435 68.098)" fill="#3f3d56"/>
  <rect id="Rectangle_90" data-name="Rectangle 90" width="2.908" height="0.363" transform="translate(186.434 68.098)" fill="#3f3d56"/>
  <rect id="Rectangle_91" data-name="Rectangle 91" width="2.908" height="0.363" transform="translate(190.432 68.098)" fill="#3f3d56"/>
  <path id="Path_1240" data-name="Path 1240" d="M1017.417,506.069v5.154a4,4,0,0,1-4,4h-19.7a4,4,0,0,1-4-4v-23.71Z" transform="translate(-818.895 -417.842)" opacity="0.1"/>
  <rect id="Rectangle_92" data-name="Rectangle 92" width="85.961" height="42.163" transform="translate(18.147 83.545)" fill="#4e4e4e" opacity="0.24"/>
  <path id="Path_1241" data-name="Path 1241" d="M213.708,606.016H149.964a.365.365,0,0,1-.363-.363V564.217a.365.365,0,0,1,.363-.364h.807Z" transform="translate(-131.454 -480.308)" opacity="0.1"/>
  <rect id="Rectangle_93" data-name="Rectangle 93" width="133.212" height="0.363" transform="translate(57.947 89.179)" fill="#3f3d56"/>
  <path id="Path_1242" data-name="Path 1242" d="M167.477,104.931H129.406v-.785H112.142v.785H73.914a2.575,2.575,0,0,0-2.575,2.575v52.132a2.575,2.575,0,0,0,2.575,2.575h93.564a2.575,2.575,0,0,0,2.575-2.575V107.507A2.575,2.575,0,0,0,167.477,104.931Z" transform="translate(-67.415 -104.147)" fill="#3f3d56"/>
  <path id="Path_1256" data-name="Path 1256" d="M0,0H91.807V51.791H0Z" transform="translate(7.377 5.335)" fill="#e5e5e5" opacity="0.996"/>
  <circle id="Ellipse_83" data-name="Ellipse 83" cx="0.942" cy="0.942" r="0.942" transform="translate(52.26 2.04)" fill="#6c63ff"/>
  <path id="Path_1243" data-name="Path 1243" d="M228.327,225.125h-2.181a.546.546,0,0,1-.545-.545V222.4a.546.546,0,0,1,.545-.545h2.181a.546.546,0,0,1,.545.545v2.181A.546.546,0,0,1,228.327,225.125Zm-2.181-2.908a.182.182,0,0,0-.182.182v2.181a.182.182,0,0,0,.182.182h2.181a.182.182,0,0,0,.182-.182V222.4a.182.182,0,0,0-.182-.182Z" transform="translate(-193.643 -200.462)" fill="#3f3d56"/>
  <rect id="Rectangle_95" data-name="Rectangle 95" width="41.436" height="0.363" transform="translate(32.14 24.299)" fill="#3f3d56"/>
  <rect id="Rectangle_96" data-name="Rectangle 96" width="9.632" height="2.908" transform="translate(62.853 34.295)" fill="#46c404"/>
  <path id="Path_1244" data-name="Path 1244" d="M410.051,290.125h-8.905a.546.546,0,0,1-.545-.545V287.4a.546.546,0,0,1,.545-.545h8.905a.546.546,0,0,1,.545.545v2.181a.546.546,0,0,1-.545.545Zm-8.905-2.908a.182.182,0,0,0-.182.182v2.181a.182.182,0,0,0,.182.182h8.905a.182.182,0,0,0,.182-.182V287.4a.182.182,0,0,0-.182-.182Z" transform="translate(-336.839 -253.649)" fill="#3f3d56"/>
  <rect id="Rectangle_97" data-name="Rectangle 97" width="18.174" height="12.721" transform="translate(127.915 37.566)" fill="#ffeb00"/>
  <path id="Path_1245" data-name="Path 1245" d="M781.775,314.8H764.328a.728.728,0,0,1-.727-.727V302.08a.728.728,0,0,1,.727-.727h17.447a.728.728,0,0,1,.727.727v11.995a.728.728,0,0,1-.727.727ZM764.328,302.08v11.995h17.447V302.08Z" transform="translate(-633.869 -265.514)" fill="#3f3d56"/>
  <path id="Path_1246" data-name="Path 1246" d="M792.05,272.578h-.727a6,6,0,0,0-11.995,0H778.6a6.724,6.724,0,0,1,13.448,0Z" transform="translate(-646.143 -236.466)" fill="#3f3d56"/>
  <path id="Path_1247" data-name="Path 1247" d="M809.234,322.16a1.817,1.817,0,1,0-2.78,1.54v1.951a.962.962,0,0,0,.962.962h0a.962.962,0,0,0,.962-.962V323.7A1.815,1.815,0,0,0,809.234,322.16Z" transform="translate(-668.235 -281.051)" fill="#3f3d56"/>
  <rect id="Rectangle_98" data-name="Rectangle 98" width="2.908" height="0.363" transform="translate(51.677 102.264)" fill="#3f3d56"/>
  <rect id="Rectangle_99" data-name="Rectangle 99" width="2.908" height="0.363" transform="translate(55.675 102.264)" fill="#3f3d56"/>
  <rect id="Rectangle_100" data-name="Rectangle 100" width="2.908" height="0.363" transform="translate(59.673 102.264)" fill="#3f3d56"/>
  <rect id="Rectangle_101" data-name="Rectangle 101" width="2.908" height="0.363" transform="translate(63.671 102.264)" fill="#3f3d56"/>
  <rect id="Rectangle_102" data-name="Rectangle 102" width="2.908" height="0.363" transform="translate(67.669 102.264)" fill="#3f3d56"/>
  <path id="Path_1248" data-name="Path 1248" d="M256.562,585.743H171.328a.728.728,0,0,1-.727-.727V543.58a.728.728,0,0,1,.727-.727h85.234a.728.728,0,0,1,.727.727v41.436a.728.728,0,0,1-.727.727ZM171.328,543.58v41.436h85.234V543.58Z" transform="translate(-148.638 -463.125)" fill="#3f3d56"/>
  <circle id="Ellipse_84" data-name="Ellipse 84" cx="1.09" cy="1.09" r="1.09" transform="translate(25.416 84.454)" fill="#3f3d56"/>
  <circle id="Ellipse_85" data-name="Ellipse 85" cx="1.09" cy="1.09" r="1.09" transform="translate(29.232 84.454)" fill="#3f3d56"/>
  <circle id="Ellipse_86" data-name="Ellipse 86" cx="1.09" cy="1.09" r="1.09" transform="translate(33.049 84.454)" fill="#3f3d56"/>
  <path id="Path_1249" data-name="Path 1249" d="M340.681,648.123H316.146a.546.546,0,0,1-.545-.545V641.4a.546.546,0,0,1,.545-.545h24.534a.546.546,0,0,1,.545.545v6.179a.546.546,0,0,1-.545.545Zm-24.534-6.906a.182.182,0,0,0-.182.182v6.179a.182.182,0,0,0,.182.182h24.534a.182.182,0,0,0,.182-.182V641.4a.182.182,0,0,0-.182-.182Z" transform="translate(-267.286 -543.315)" fill="#3f3d56"/>
  <circle id="Ellipse_87" data-name="Ellipse 87" cx="3.271" cy="3.271" r="3.271" transform="translate(76.302 98.447)" fill="#46c404"/>
  <path id="Path_1250" data-name="Path 1250" d="M478.054,648.759a3.453,3.453,0,1,1,3.453-3.453A3.453,3.453,0,0,1,478.054,648.759Zm0-6.543a3.09,3.09,0,1,0,3.09,3.09A3.09,3.09,0,0,0,478.054,642.217Z" transform="translate(-397.39 -544.133)" fill="#3f3d56"/>
  <path id="Path_1251" data-name="Path 1251" d="M436.2,538.234l-1.759-1.76.514-.514,1.148,1.148,3.2-4.554.594.419Z" transform="translate(-355.484 -435.771)" fill="#3f3d56"/>
  <path id="Path_1252" data-name="Path 1252" d="M112.044,98.814H40.591V50.947Z" transform="translate(-33.214 -41.688)" opacity="0.1"/>
  <path id="Path_1253" data-name="Path 1253" d="M154.965,409.815h-8.96v-.646a.128.128,0,0,0-.128-.128h-3.072a.128.128,0,0,0-.128.128v.646h-1.92v-.646a.128.128,0,0,0-.128-.128h-3.072a.128.128,0,0,0-.128.128v.646h-1.92v-.646a.128.128,0,0,0-.128-.128h-3.072a.128.128,0,0,0-.128.128v.646h-1.92v-.646a.128.128,0,0,0-.128-.128h-3.072a.128.128,0,0,0-.128.128v.646h-1.92v-.646a.128.128,0,0,0-.128-.128h-3.072a.128.128,0,0,0-.128.128v.646h-1.92v-.646a.128.128,0,0,0-.128-.128h-3.072a.128.128,0,0,0-.128.128v.646h-1.92v-.646a.128.128,0,0,0-.128-.128H90.325a.128.128,0,0,0-.128.128v.646h-1.92v-.646a.128.128,0,0,0-.128-.128H85.077a.128.128,0,0,0-.128.128v.646h-1.92v-.646a.128.128,0,0,0-.128-.128H79.829a.128.128,0,0,0-.128.128v.646h-1.92v-.646a.128.128,0,0,0-.128-.128H74.582a.128.128,0,0,0-.128.128v.646h-1.92v-.646a.128.128,0,0,0-.128-.128H69.334a.128.128,0,0,0-.128.128v.646h-1.92v-.646a.128.128,0,0,0-.128-.128H64.086a.128.128,0,0,0-.128.128v.646h-1.92v-.646a.128.128,0,0,0-.128-.128H58.838a.128.128,0,0,0-.128.128v.646H52.822a3.072,3.072,0,0,0-3.072,3.072v1.389a3.072,3.072,0,0,0,3.072,3.072H154.965a3.072,3.072,0,0,0,3.072-3.072v-1.389A3.072,3.072,0,0,0,154.965,409.815Z" transform="translate(-49.75 -353.632)" fill="#3f3d56"/>
  <path id="Path_1254" data-name="Path 1254" d="M256.124,226.935H208.146a.546.546,0,0,1-.545-.545V206.4a.546.546,0,0,1,.545-.545h47.978a.546.546,0,0,1,.545.545V226.39a.546.546,0,0,1-.545.545Zm-47.978-20.718a.182.182,0,0,0-.182.182V226.39a.182.182,0,0,0,.182.182h47.978a.182.182,0,0,0,.182-.182V206.4a.182.182,0,0,0-.182-.182Z" transform="translate(-178.914 -187.37)" fill="#3f3d56"/>
  <path id="Path_1255" data-name="Path 1255" d="M228.327,255.125h-2.181a.546.546,0,0,1-.545-.545V252.4a.546.546,0,0,1,.545-.545h2.181a.546.546,0,0,1,.545.545v2.181A.546.546,0,0,1,228.327,255.125Zm-2.181-2.908a.182.182,0,0,0-.182.182v2.181a.182.182,0,0,0,.182.182h2.181a.182.182,0,0,0,.182-.182V252.4a.182.182,0,0,0-.182-.182Z" transform="translate(-193.643 -225.01)" fill="#3f3d56"/>
  <rect id="Rectangle_103" data-name="Rectangle 103" width="41.436" height="0.363" transform="translate(32.14 29.751)" fill="#3f3d56"/>
  <rect id="Rectangle_104" data-name="Rectangle 104" width="133.212" height="0.363" transform="translate(48.133 49.015)" fill="#3f3d56"/>
  <circle id="Ellipse_88" data-name="Ellipse 88" cx="2.544" cy="2.544" r="2.544" transform="translate(45.589 46.471)" fill="#3f3d56"/>
  <circle id="Ellipse_89" data-name="Ellipse 89" cx="1.999" cy="1.999" r="1.999" transform="translate(179.346 47.38)" fill="#3f3d56"/>
  <circle id="Ellipse_90" data-name="Ellipse 90" cx="1.999" cy="1.999" r="1.999" transform="translate(189.16 87.543)" fill="#3f3d56"/>
  <circle id="Ellipse_91" data-name="Ellipse 91" cx="1.999" cy="1.999" r="1.999" transform="translate(56.493 87.543)" fill="#3f3d56"/>
</svg>
