<svg id="Group_7" data-name="Group 7" xmlns="http://www.w3.org/2000/svg" width="200" height="169.675" viewBox="0 0 200 169.675">
  <path id="Path_143" data-name="Path 143" d="M652.584,241.21h-5.93a1.142,1.142,0,0,1-1.14-1.14V234.14a1.142,1.142,0,0,1,1.14-1.14h5.93a1.142,1.142,0,0,1,1.14,1.14v5.929A1.142,1.142,0,0,1,652.584,241.21Zm-5.93-7.754a.685.685,0,0,0-.684.684v5.929a.685.685,0,0,0,.684.684h5.93a.685.685,0,0,0,.684-.684V234.14a.685.685,0,0,0-.684-.684Z" transform="translate(-535.134 -197.651)" fill="#4e4e4e"/>
  <path id="Path_144" data-name="Path 144" d="M349.584,86.21h-5.929a1.142,1.142,0,0,1-1.14-1.14V79.14a1.142,1.142,0,0,1,1.14-1.14h5.929a1.142,1.142,0,0,1,1.14,1.14V85.07A1.142,1.142,0,0,1,349.584,86.21Zm-5.929-7.754a.685.685,0,0,0-.684.684V85.07a.685.685,0,0,0,.684.684h5.929a.685.685,0,0,0,.684-.684V79.14a.685.685,0,0,0-.684-.684Z" transform="translate(-301.235 -78)" fill="#4e4e4e"/>
  <path id="Path_145" data-name="Path 145" d="M636.584,228.21h-5.93a1.142,1.142,0,0,1-1.14-1.14V221.14a1.142,1.142,0,0,1,1.14-1.14h5.93a1.142,1.142,0,0,1,1.14,1.14v5.929A1.142,1.142,0,0,1,636.584,228.21Zm-5.93-7.754a.685.685,0,0,0-.684.684v5.929a.685.685,0,0,0,.684.684h5.93a.685.685,0,0,0,.684-.684V221.14a.685.685,0,0,0-.684-.684Z" transform="translate(-522.783 -187.616)" fill="#4e4e4e"/>
  <path id="Path_146" data-name="Path 146" d="M184.584,445.21h-5.93a1.142,1.142,0,0,1-1.14-1.14V438.14a1.142,1.142,0,0,1,1.14-1.14h5.929a1.142,1.142,0,0,1,1.14,1.14v5.929A1.142,1.142,0,0,1,184.584,445.21Zm-5.93-7.754a.685.685,0,0,0-.684.684v5.929a.685.685,0,0,0,.684.684h5.929a.685.685,0,0,0,.684-.684V438.14a.685.685,0,0,0-.684-.684Z" transform="translate(-173.865 -355.127)" fill="#4e4e4e"/>
  <path id="Path_147" data-name="Path 147" d="M168.584,432.21h-5.929a1.142,1.142,0,0,1-1.14-1.14v-5.93a1.142,1.142,0,0,1,1.14-1.14h5.929a1.142,1.142,0,0,1,1.14,1.14v5.93A1.142,1.142,0,0,1,168.584,432.21Zm-5.929-7.754a.685.685,0,0,0-.684.684v5.93a.685.685,0,0,0,.684.684h5.929a.685.685,0,0,0,.684-.684v-5.93a.685.685,0,0,0-.684-.684Z" transform="translate(-161.514 -345.092)" fill="#4e4e4e"/>
  <path id="Path_148" data-name="Path 148" d="M229.431,164.038h54.874a11.665,11.665,0,0,1,11.38,9.1l27.727,122.984a9.428,9.428,0,0,1-8.733,11.49l-56.411,2.779A12.455,12.455,0,0,1,245.4,300.167L229.67,213.216l-1.17.334-3.009-16.48,1.2-.3L222.3,172.5a7.182,7.182,0,0,1,7.127-8.46Z" transform="translate(-208.352 -144.416)" fill="#3f3d56"/>
  <path id="Path_149" data-name="Path 149" d="M295.412,175.664h6.405a8.062,8.062,0,0,1,7.876,6.343l26.614,121.98a5,5,0,0,1-4.554,6.049l-56.228,3.685a6.469,6.469,0,0,1-6.79-5.309l-22.71-126.079a5.666,5.666,0,0,1,5.577-6.671h6.077a2.674,2.674,0,0,1,2.582,1.979h0a2.361,2.361,0,0,0,2.28,1.747h28.848A4.036,4.036,0,0,0,295.412,175.664Z" transform="translate(-226.683 -153.391)" fill="#fff"/>
  <path id="Path_150" data-name="Path 150" d="M104,188.606h61l6.5,29.281-61.8,1.14Z" transform="translate(-80.282 -145.593)" fill="#46c404"/>
  <path id="Path_151" data-name="Path 151" d="M358,431.754h14.361l.456,2.749H358.456Z" transform="translate(-276.355 -333.289)" fill="#46c404"/>
  <rect id="Rectangle_36" data-name="Rectangle 36" width="60.92" height="0.287" transform="translate(32.423 85.73) rotate(-1.213)" fill="#2f2e41"/>
  <rect id="Rectangle_37" data-name="Rectangle 37" width="62.069" height="0.287" transform="matrix(1, -0.023, 0.023, 1, 33.139, 94.327)" fill="#2f2e41"/>
  <path id="Path_152" data-name="Path 152" d="M384,560.754h14.361l.456,2.749H384.456Z" transform="translate(-296.426 -432.87)" fill="#46c404"/>
  <rect id="Rectangle_38" data-name="Rectangle 38" width="60.92" height="0.287" transform="translate(38.353 115.149) rotate(-1.213)" fill="#2f2e41"/>
  <rect id="Rectangle_39" data-name="Rectangle 39" width="62.069" height="0.287" transform="matrix(1, -0.023, 0.023, 1, 39.069, 123.747)" fill="#2f2e41"/>
  <path id="Path_153" data-name="Path 153" d="M601.987,695.73H599.27l-1.293-10.481h4.01Z" transform="translate(-461.604 -528.973)" fill="#a0616a"/>
  <path id="Path_154" data-name="Path 154" d="M750.455,808.837h-8.762v-.111a3.41,3.41,0,0,1,3.41-3.41h5.352Z" transform="translate(-609.379 -639.446)" fill="#2f2e41"/>
  <path id="Path_155" data-name="Path 155" d="M742.232,688.873l-2.645.623-3.661-9.905,3.9-.919Z" transform="translate(-568.093 -523.895)" fill="#a0616a"/>
  <path id="Path_156" data-name="Path 156" d="M901.432,800.349l-8.528,2.008-.025-.108a3.41,3.41,0,0,1,2.538-4.1h0l5.209-1.227Z" transform="translate(-726.015 -632.967)" fill="#2f2e41"/>
  <path id="Path_157" data-name="Path 157" d="M758.692,553.146c.005-.546.167-13.436,3.7-18.31l.052-.072,12.313,1.7-.275,2.705c.542.527,4.8,4.978,6.032,15.52l13.069,35.1-6.076.552-17.986-38.318L760,593.676h-6.023Z" transform="translate(-618.864 -430.596)" fill="#2f2e41"/>
  <path id="Path_158" data-name="Path 158" d="M784.539,464.592l1.2-6.319a4.981,4.981,0,0,1-1.047-3.467,4.272,4.272,0,0,1,1.977-2.9l3.12-7.28.042-.025c.21-.124,5.177-3,7.885-.286.068.052,6.735,5.345,4.058,12.485l-3.305,9.917Z" transform="translate(-642.453 -359.876)" fill="#ccc"/>
  <path id="Path_159" data-name="Path 159" d="M757.658,544.294a2.235,2.235,0,0,0,1.887-2.86l6.443-4.642-3.857-1.467-5.527,4.633a2.247,2.247,0,0,0,1.054,4.336Z" transform="translate(-619.76 -431.029)" fill="#a0616a"/>
  <path id="Path_160" data-name="Path 160" d="M771.369,466.492l9.836-7.75-2.924-9.991a3.59,3.59,0,0,1,.362-2.841,3.32,3.32,0,0,1,2.177-1.571c1.684-.356,3.212.587,4.542,2.8l.01.02c.22.538,5.344,13.2,1.432,15.914-3.828,2.65-12.7,6.507-12.792,6.546l-.1.045Z" transform="translate(-632.287 -360.736)" fill="#ccc"/>
  <circle id="Ellipse_27" data-name="Ellipse 27" cx="5.959" cy="5.959" r="5.959" transform="translate(146.196 69.883)" fill="#a0616a"/>
  <circle id="Ellipse_28" data-name="Ellipse 28" cx="5.271" cy="5.271" r="5.271" transform="translate(156.225 63.172)" fill="#2f2e41"/>
  <path id="Path_161" data-name="Path 161" d="M862.036,380.568a5.272,5.272,0,0,1-8.14-2.768,5.272,5.272,0,1,0,10.283-2.162A5.27,5.27,0,0,1,862.036,380.568Z" transform="translate(-695.993 -307.76)" fill="#2f2e41"/>
  <path id="Path_162" data-name="Path 162" d="M798.37,383.213a9.66,9.66,0,0,1,2.459-3.338,2.556,2.556,0,0,1,3.381-.307,6.234,6.234,0,1,1-3.762,5.723,6.3,6.3,0,0,1,.042-.7C799.586,384.459,799.275,383.34,798.37,383.213Z" transform="translate(-653.131 -310.399)" fill="#2f2e41"/>
  <path id="Path_163" data-name="Path 163" d="M742.6,820.456h-86.89a.228.228,0,0,1,0-.456H742.6a.228.228,0,1,1,0,.456Z" transform="translate(-542.832 -650.781)" fill="#3f3d56"/>
</svg>
