<svg xmlns="http://www.w3.org/2000/svg" width="200" height="200.599" viewBox="0 0 200 200.599">
  <g id="Group_1" data-name="Group 1" transform="translate(0 0)">
    <path id="Path_1" data-name="Path 1" d="M246.809,672.112l-1.761-6.947a90.239,90.239,0,0,0-9.571-3.434l-.222,3.229-.9-3.557c-4.033-1.153-6.777-1.66-6.777-1.66s3.705,14.094,11.48,24.869l9.058,1.591-7.037,1.015a36.506,36.506,0,0,0,3.147,3.335c11.308,10.5,23.9,15.313,28.133,10.757s-1.51-16.758-12.819-27.254a48.061,48.061,0,0,0-12.318-7.921Z" transform="translate(-227.576 -503.125)" fill="#46c404"/>
    <path id="Path_2" data-name="Path 2" d="M325.412,621.78l2.083-6.857a90.184,90.184,0,0,0-6.417-7.886l-1.859,2.649,1.067-3.511c-2.857-3.071-4.944-4.923-4.944-4.923s-4.112,13.981-3.027,27.223l6.932,6.044-6.55-2.769a36.5,36.5,0,0,0,.97,4.483c4.255,14.831,12.548,25.464,18.523,23.75s7.37-15.126,3.115-29.958a48.056,48.056,0,0,0-6.45-13.148Z" transform="translate(-289.427 -460.339)" fill="#ffeb00"/>
    <path id="Path_22" data-name="Path 22" d="M475.678,123.983h-1.1v-30.1a17.422,17.422,0,0,0-17.422-17.422H393.384a17.422,17.422,0,0,0-17.422,17.422V259.018a17.422,17.422,0,0,0,17.422,17.422h63.773a17.422,17.422,0,0,0,17.422-17.422V145.409h1.1Z" transform="translate(-336.119 -76.461)" fill="#4e4e4e"/>
    <path id="Path_23" data-name="Path 23" d="M470.956,93.336h-8.324a6.181,6.181,0,0,1-5.724,8.516H420.373a6.181,6.181,0,0,1-5.723-8.516h-7.775a13.01,13.01,0,0,0-13.01,13.01V271.241a13.01,13.01,0,0,0,13.01,13.01h64.08a13.01,13.01,0,0,0,13.01-13.01h0V106.346a13.01,13.01,0,0,0-13.01-13.01Z" transform="translate(-349.215 -88.805)" fill="#fff"/>
    <path id="Path_6" data-name="Path 6" d="M513.353,320.076a6.562,6.562,0,0,1,3.285-5.686,6.565,6.565,0,1,0,0,11.371A6.561,6.561,0,0,1,513.353,320.076Z" transform="translate(-431.818 -249.859)" fill="#4e4e4e"/>
    <path id="Path_7" data-name="Path 7" d="M544.091,320.076a6.562,6.562,0,0,1,3.285-5.686,6.565,6.565,0,1,0,0,11.371A6.561,6.561,0,0,1,544.091,320.076Z" transform="translate(-454.302 -249.859)" fill="#4e4e4e"/>
    <circle id="Ellipse_1" data-name="Ellipse 1" cx="6.565" cy="6.565" r="6.565" transform="translate(91.289 63.651)" fill="#46c404"/>
    <path id="Path_8" data-name="Path 8" d="M524.892,302.607H486.629a1.376,1.376,0,0,1-1.374-1.374V262.97a1.376,1.376,0,0,1,1.374-1.374h38.263a1.376,1.376,0,0,1,1.374,1.374v38.263a1.376,1.376,0,0,1-1.374,1.374Zm-38.263-40.461a.825.825,0,0,0-.824.824v38.263a.825.825,0,0,0,.824.824h38.263a.825.825,0,0,0,.824-.824V262.971a.825.825,0,0,0-.824-.824Z" transform="translate(-416.065 -211.886)" fill="#ccc"/>
    <rect id="Rectangle_1" data-name="Rectangle 1" width="58.684" height="0.55" transform="translate(58.686 120.052)" fill="#ccc"/>
    <circle id="Ellipse_2" data-name="Ellipse 2" cx="1.853" cy="1.853" r="1.853" transform="translate(58.686 112.914)" fill="#46c404"/>
    <rect id="Rectangle_2" data-name="Rectangle 2" width="58.684" height="0.55" transform="translate(58.686 138.583)" fill="#ccc"/>
    <circle id="Ellipse_3" data-name="Ellipse 3" cx="1.853" cy="1.853" r="1.853" transform="translate(58.686 131.446)" fill="#46c404"/>
    <path id="Path_1-2" data-name="Path 1" d="M606.876,646.881H588.33a1.21,1.21,0,0,1-1.208-1.208v-6.5a1.21,1.21,0,0,1,1.208-1.208h18.546a1.21,1.21,0,0,1,1.208,1.208v6.5A1.209,1.209,0,0,1,606.876,646.881Z" transform="translate(-490.58 -487.194)" fill="#46c404"/>
    <circle id="Ellipse_7" data-name="Ellipse 7" cx="1.853" cy="1.853" r="1.853" transform="translate(64.732 112.914)" fill="#46c404"/>
    <circle id="Ellipse_8" data-name="Ellipse 8" cx="1.853" cy="1.853" r="1.853" transform="translate(70.777 112.914)" fill="#46c404"/>
    <circle id="Ellipse_9" data-name="Ellipse 9" cx="1.853" cy="1.853" r="1.853" transform="translate(64.732 131.446)" fill="#46c404"/>
    <circle id="Ellipse_10" data-name="Ellipse 10" cx="1.853" cy="1.853" r="1.853" transform="translate(70.777 131.446)" fill="#46c404"/>
    <path id="Path_88" data-name="Path 88" d="M442.408,821.756H249.621c-.413,0-.747-.147-.747-.327s.334-.327.747-.327H442.408c.412,0,.747.146.747.327S442.821,821.756,442.408,821.756Z" transform="translate(-243.155 -621.157)" fill="#3f3d56"/>
    <path id="Path_2-2" data-name="Path 2" d="M781.7,543.773a2.71,2.71,0,0,1,.379.211l12.043-5.14.43-3.172,4.812-.029-.284,7.276-15.9,4.2a2.864,2.864,0,0,1-.12.324,2.748,2.748,0,1,1-1.364-3.674Z" transform="translate(-630.079 -412.347)" fill="#ffb8b8"/>
    <path id="Path_3" data-name="Path 3" d="M623.746,700.43h-3.292l-1.566-12.7h4.858Z" transform="translate(-452.71 -503.069)" fill="#ffb8b8"/>
    <path id="Path_4" data-name="Path 4" d="M605.073,731.518h6.349v4H601.076A4,4,0,0,1,605.073,731.518Z" transform="translate(-439.68 -535.097)" fill="#2f2e41"/>
    <path id="Path_5" data-name="Path 5" d="M668.1,697.133l-3.276.323-2.8-12.483,4.835-.476Z" transform="translate(-484.259 -500.702)" fill="#ffb8b8"/>
    <path id="Path_6-2" data-name="Path 6" d="M4,0h6.349V4H0A4,4,0,0,1,4,0Z" transform="translate(174.151 196.44) rotate(-5.625)" fill="#2f2e41"/>
    <circle id="Ellipse_1-2" data-name="Ellipse 1" cx="6.595" cy="6.595" r="6.595" transform="translate(165.358 96.667)" fill="#ffb8b8"/>
    <path id="Path_7-2" data-name="Path 7" d="M826.138,675.484a1.2,1.2,0,0,1-1.185-.993c-1.7-9.458-7.273-40.385-7.407-41.242a.372.372,0,0,1,0-.059v-2.306a.4.4,0,0,1,.075-.234l.736-1.031a.4.4,0,0,1,.307-.168c4.195-.2,17.932-.773,18.6.056h0c.667.833.431,3.358.377,3.856l0,.052,6.172,39.47a1.211,1.211,0,0,1-1,1.379l-3.855.635a1.214,1.214,0,0,1-1.349-.831c-1.192-3.81-5.19-16.626-6.576-21.585a.134.134,0,0,0-.263.037c.069,4.727.237,16.788.294,20.954l.006.449a1.213,1.213,0,0,1-1.1,1.218l-3.717.338C826.213,675.482,826.175,675.484,826.138,675.484Z" transform="translate(-659.13 -480.69)" fill="#2f2e41"/>
    <path id="Path_99" data-name="Path 99" d="M827.5,493.582a5.515,5.515,0,0,0-2.235,3.221,30.529,30.529,0,0,0-1.311,7.293l-.418,7.411-5.17,19.647c4.481,3.792,7.066,2.93,13.1-.172s6.721,1.034,6.721,1.034l1.206-16.717,1.723-18.267a8.1,8.1,0,0,0-1.305-1.255,13.334,13.334,0,0,0-11.4-2.415Z" transform="translate(-659.73 -381.132)" fill="#46c404"/>
    <path id="Path_8-2" data-name="Path 8" d="M835.795,555.259a2.814,2.814,0,0,1,.4.189l11.908-5.96.2-3.229,4.912-.339.263,7.36-15.914,5.263a2.818,2.818,0,1,1-1.77-3.284Z" transform="translate(-669.707 -419.865)" fill="#ffb8b8"/>
    <path id="Path_101" data-name="Path 101" d="M885.607,507.443c2.93,1.034,3.446,12.237,3.446,12.237-3.447-1.9-7.583,1.206-7.583,1.206s-.862-2.93-1.9-6.721a6.587,6.587,0,0,1,1.379-6.2A4.693,4.693,0,0,1,885.607,507.443Z" transform="translate(-704.311 -391.459)" fill="#46c404"/>
    <path id="Path_102" data-name="Path 102" d="M855.923,437.7c-.822-.657-1.943.538-1.943.538l-.657-5.916a23.491,23.491,0,0,1-6.738-.164c-2.629-.656-3.04,2.383-3.04,2.383a21.1,21.1,0,0,1-.082-3.7c.164-1.479,2.3-2.958,6.08-3.944s5.752,3.287,5.752,3.287C857.924,431.5,856.744,438.359,855.923,437.7Z" transform="translate(-678.057 -332.695)" fill="#2f2e41"/>
  </g>
</svg>
